<svg xmlns="http://www.w3.org/2000/svg" viewBox="0 0 150 150"><defs><style>.a,.b{fill:none;stroke-linecap:round;}.a{stroke:#ee2b4e;stroke-miterlimit:10;stroke-width:3px;}.b{stroke:#0c2d41;stroke-linejoin:round;stroke-width:15.46px;}</style></defs><title>icons150*150</title><line class="a" x1="93.47" y1="93.51" x2="127.59" y2="93.51"/><line class="a" x1="47.88" y1="93.51" x2="78.79" y2="93.51"/><circle class="a" cx="40.48" cy="93.51" r="7.29"/><circle class="a" cx="86.19" cy="93.51" r="7.29"/><circle class="a" cx="135.32" cy="93.51" r="7.29"/><line class="a" x1="135.32" y1="86.11" x2="135.32" y2="64.77"/><line class="a" x1="86.19" y1="101.13" x2="86.19" y2="125.67"/><line class="a" x1="40.48" y1="86.11" x2="40.48" y2="66.1"/><line class="a" x1="18.84" y1="20.17" x2="26.02" y2="37.39"/><line class="a" x1="46.66" y1="17.74" x2="43.02" y2="36.51"/><line class="a" x1="1.39" y1="40.7" x2="10.45" y2="47.44"/><line class="a" x1="53.95" y1="39.71" x2="53.51" y2="40.7"/><line class="a" x1="20.83" y1="44.46" x2="21.05" y2="44.79"/><line class="b" x1="31.65" y1="63.89" x2="47.77" y2="63.89"/><line class="b" x1="126.49" y1="63.89" x2="142.61" y2="63.89"/><line class="b" x1="78.13" y1="126" x2="94.25" y2="126"/></svg>