<svg xmlns="http://www.w3.org/2000/svg" viewBox="0 0 150 150"><defs><style>.a,.c{fill:none;stroke:#ee2b4e;stroke-linecap:round;stroke-width:3px;}.a{stroke-linejoin:round;}.b{fill:#0c2d41;}.c{stroke-miterlimit:10;}</style></defs><title>icons150*150</title><path class="a" d="M40.23,58.62h63.56v69.56a11,11,0,0,1-11,11H36.92"/><path class="a" d="M39.66,58.62V132.7a7.29,7.29,0,0,1-7.27,7.3h-.05A7.29,7.29,0,0,1,25,132.76h0V87.23l14.47.18"/><line class="a" x1="39.66" y1="73.27" x2="103.05" y2="73.27"/><line class="a" x1="47.36" y1="102.76" x2="95.34" y2="102.76"/><rect class="b" x="47.53" y="80.41" width="16.12" height="16.48" rx="2.43" ry="2.43"/><line class="a" x1="71.72" y1="81.88" x2="94.44" y2="81.88"/><line class="a" x1="71.72" y1="92.06" x2="94.44" y2="92.06"/><rect class="b" x="78.32" y="111.37" width="16.12" height="16.48" rx="2.43" ry="2.43"/><line class="a" x1="70.25" y1="114.83" x2="47.53" y2="114.83"/><line class="a" x1="70.25" y1="126.03" x2="47.53" y2="126.03"/><line class="c" x1="113" y1="26.17" x2="99.64" y2="42.45"/><line class="c" x1="83.82" y1="14.46" x2="81.66" y2="35.86"/><line class="c" x1="125" y1="53.96" x2="113.06" y2="58.35"/><line class="c" x1="68.87" y1="35.72" x2="69.01" y2="36.93"/><line class="c" x1="102.9" y1="51.74" x2="102.56" y2="51.98"/><line class="a" x1="52.15" y1="65.58" x2="89.79" y2="65.58"/></svg>