<svg xmlns="http://www.w3.org/2000/svg" viewBox="0 0 150 150"><defs><style>.a,.b,.c{fill:none;stroke-linecap:round;}.a,.c{stroke:#0c2d41;stroke-linejoin:round;}.a{stroke-width:15.26px;}.b{stroke:#ee2b4e;stroke-miterlimit:10;stroke-width:3px;}.c{stroke-width:11.19px;}</style></defs><title>icons150*150</title><circle class="a" cx="74.64" cy="73.67" r="7.63"/><path class="b" d="M52.37,140V107.85A16.32,16.32,0,0,1,68.64,91.58H82.48a16.32,16.32,0,0,1,16.28,16.28V140"/><circle class="c" cx="104.86" cy="78.56" r="5.6"/><circle class="c" cx="44.13" cy="78.56" r="5.6"/><path class="b" d="M92.34,94.93c2.44-2.44,3.66-2.64,7.43-2.64h11.6A13.63,13.63,0,0,1,125,105.92v15.16"/><path class="b" d="M57.66,94.93c-2.44-2.44-3.66-2.64-7.43-2.64H38.63A13.63,13.63,0,0,0,25,105.92v15.16"/><line class="b" x1="53.79" y1="36.15" x2="62.61" y2="49.37"/><line class="b" x1="70.43" y1="31.59" x2="70.86" y2="32.31"/><line class="b" x1="84.22" y1="19.36" x2="85.65" y2="43.26"/><line class="b" x1="119.07" y1="28.18" x2="106.27" y2="49.66"/><line class="b" x1="123.33" y1="57.19" x2="122.76" y2="57.9"/></svg>