<svg id="Layer_1" data-name="Layer 1" xmlns="http://www.w3.org/2000/svg" viewBox="0 0 148.17 148.17"><defs><style>.cls-1,.cls-2{fill:none;stroke-linecap:round;stroke-linejoin:round;}.cls-1{stroke:#fff;stroke-width:3px;}.cls-2{stroke:#1e2026;stroke-width:8.63px;}</style></defs><title>Artboard 13 copy 2</title><polyline class="cls-1" points="40.99 127.77 36.02 127.77 36.02 65.41 108.63 65.41 108.63 127.77 64.29 127.77"/><path class="cls-1" d="M115.32,127.88h-6.69V76.74h17.26a18.45,18.45,0,0,1,18.45,18.43v32.71H139"/><circle class="cls-2" cx="52.74" cy="127.98" r="7.34"/><circle class="cls-2" cx="127.18" cy="127.98" r="7.34"/><path class="cls-1" d="M117.26,85.91h8.41a10.08,10.08,0,0,1,10,10h0v5.83H117.26Z"/><line class="cls-1" x1="30.32" y1="12.85" x2="41.72" y2="34.41"/><line class="cls-1" x1="67.39" y1="19.11" x2="67.39" y2="35.44"/><line class="cls-1" x1="3.83" y1="48.07" x2="27.14" y2="58.13"/><line class="cls-1" x1="10.61" y1="81.03" x2="12.15" y2="80.62"/><line class="cls-1" x1="54.15" y1="42.73" x2="54.15" y2="43.66"/></svg>