<svg xmlns="http://www.w3.org/2000/svg" viewBox="0 0 150 150"><defs><style>.a{fill:none;stroke:#ee2b4e;stroke-linecap:round;stroke-miterlimit:10;stroke-width:3px;}.b{fill:#0c2d41;}</style></defs><title>icons150*150</title><path class="a" d="M52.69,69.45h68.73a5,5,0,0,1,5,5v47.75a5,5,0,0,1-5,5H52.69a5,5,0,0,1-5-5V74.47A5.07,5.07,0,0,1,52.69,69.45Z"/><path class="a" d="M126.32,81.95l6.36.67a5,5,0,0,1,4.46,5.47h0l-5,47.42a5,5,0,0,1-5.47,4.46h0l-68.28-7.25a5,5,0,0,1-4.46-5.47h0"/><rect class="b" x="49.34" y="76.7" width="75.53" height="12.61"/><line class="a" x1="55.92" y1="108.39" x2="82.7" y2="108.39"/><line class="a" x1="55.92" y1="117.65" x2="95.97" y2="117.65"/><line class="a" x1="108.36" y1="117.65" x2="118.18" y2="117.65"/><line class="a" x1="36.84" y1="121.44" x2="4.82" y2="121.44"/><line class="a" x1="40.53" y1="108.06" x2="18.21" y2="108.06"/><line class="a" x1="40.53" y1="95.45" x2="27.14" y2="95.45"/><line class="a" x1="90.73" y1="17.13" x2="91.18" y2="43.57"/><line class="a" x1="58.71" y1="42.45" x2="67.19" y2="57.96"/><line class="a" x1="134.47" y1="36.87" x2="117.51" y2="58.63"/><line class="a" x1="145.18" y1="71.8" x2="143.5" y2="72.24"/><line class="a" x1="83.7" y1="57.96" x2="84.15" y2="58.85"/></svg>