<svg xmlns="http://www.w3.org/2000/svg" viewBox="0 0 150 150"><defs><style>.a,.c{fill:none;stroke:#ee2b4e;stroke-linecap:round;stroke-miterlimit:10;}.a{stroke-width:3px;}.b{fill:#0c2d41;}.c{stroke-width:2.69px;}</style></defs><title>icons150*150</title><path class="a" d="M64.54,62.68h24a7.9,7.9,0,0,1,7.93,7.81h0v61.29H65.27"/><path class="a" d="M42.91,131.91A7.82,7.82,0,0,1,35.1,124h0V95.13"/><path class="a" d="M125.83,131.06h9.85V97.17a8.09,8.09,0,0,0-2.4-5.77L118.74,76.74a9.29,9.29,0,0,0-6.49-2.64H96.51v56.84l2.4.12h5"/><circle class="a" cx="53.49" cy="131.3" r="10.7"/><circle class="b" cx="53.49" cy="131.3" r="3"/><circle class="b" cx="115.02" cy="131.3" r="3"/><path class="a" d="M104,131.06a10.94,10.94,0,0,1,21.87,0"/><path class="c" d="M125.83,131.06a10.94,10.94,0,1,1-21.87,0"/><path class="c" d="M125.83,131.06a10.94,10.94,0,1,1-21.87,0"/><path class="a" d="M134.73,101.38H107.57a4.44,4.44,0,0,1-4.45-4.45V83.35a4.44,4.44,0,0,1,4.45-4.45h13.34"/><line class="a" x1="64.18" y1="79.39" x2="96.15" y2="79.39"/><circle class="a" cx="39.91" cy="69.89" r="25.6"/><line class="a" x1="38.11" y1="56.31" x2="38.11" y2="72.3"/><line class="a" x1="38.11" y1="72.3" x2="49.52" y2="72.3"/><line class="a" x1="96.51" y1="9.33" x2="89.66" y2="34.08"/><line class="a" x1="59.74" y1="24.11" x2="63.34" y2="40.81"/><line class="a" x1="131.72" y1="39.73" x2="109.97" y2="55.23"/><line class="a" x1="132.2" y1="75.06" x2="130.52" y2="75.06"/><line class="a" x1="78.73" y1="45.38" x2="78.97" y2="46.34"/></svg>