<svg xmlns="http://www.w3.org/2000/svg" viewBox="0 0 150 150"><defs><style>.a,.b{fill:none;stroke-linecap:round;}.a{stroke:#0c2d41;stroke-linejoin:round;stroke-width:20.22px;}.b{stroke:#ee2b4e;stroke-miterlimit:10;stroke-width:3px;}</style></defs><title>icons150*150</title><circle class="a" cx="60.16" cy="119.89" r="10.11" transform="translate(-67.16 77.65) rotate(-45)"/><path class="b" d="M111.58,104.13c2.6-2.6,2.45-7.51,2.45-11.84V89.83c0-4-5.49-9.1-14-13-10.69-4.91-24.84-7.51-39.86-7.51S31,71.93,20.46,76.69c-8.52,3.9-14,9-14,13v2.45c-.14,4.48-.29,9.53,2.6,12.13,1.88,1.73,5.34,2.45,10,1.88,14-1.44,14-5.92,13.86-13.14V91.57c0-3.47,3.18-5.78,9.39-7.22A92.71,92.71,0,0,1,60.17,82.9c18.63,0,27.29,2.74,27.29,8.52v1.44c0,7.22-.14,11.55,13.86,13.14,4.62.43,8.09-.14,10-1.88Z"/><line class="b" x1="141.37" y1="41.31" x2="120.11" y2="59.4"/><line class="b" x1="143.61" y1="84.32" x2="125.43" y2="88.39"/><line class="b" x1="95.28" y1="20.57" x2="89.82" y2="49.02"/><line class="b" x1="60.17" y1="36.28" x2="60.98" y2="37.88"/><line class="b" x1="123.51" y1="73.05" x2="122.52" y2="73.27"/></svg>