<svg xmlns="http://www.w3.org/2000/svg" viewBox="0 0 150 150"><defs><style>.a,.c,.d,.e{fill:none;stroke-linecap:round;}.a,.c,.e{stroke:#ee2b4e;}.a,.c,.d{stroke-linejoin:round;}.a,.d,.e{stroke-width:3px;}.b{fill:#0c2d41;}.c{stroke-width:3.1px;}.d{stroke:#fff;}.e{stroke-miterlimit:10;}</style></defs><title>icons150*150</title><path class="a" d="M47.93,127.19a7.62,7.62,0,0,1-7.62-7.62h0V67.87a7.62,7.62,0,0,1,7.62-7.62H92.11a7.62,7.62,0,0,1,7.62,7.62h0v59.3H69.56"/><path class="a" d="M128.16,126.41h9.56V93.58A7.9,7.9,0,0,0,135.39,88l-14.1-14.12a8.88,8.88,0,0,0-6.28-2.6H99.74v55l2.33.1H107"/><circle class="a" cx="58.13" cy="126.66" r="10.34"/><circle class="b" cx="58.13" cy="126.66" r="2.91"/><circle class="b" cx="117.73" cy="126.66" r="2.91"/><path class="a" d="M107,126.41a10.59,10.59,0,0,1,21.19,0"/><path class="a" d="M128.16,126.41a10.59,10.59,0,1,1-21.19,0"/><path class="a" d="M128.16,126.41a10.59,10.59,0,1,1-21.19,0"/><path class="a" d="M136.7,97.72H110.46a4.28,4.28,0,0,1-4.27-4.27V80.28A4.28,4.28,0,0,1,110.46,76h12.88"/><line class="a" x1="49.41" y1="53.61" x2="49.41" y2="64.84"/><line class="a" x1="69.76" y1="53.61" x2="69.76" y2="64.84"/><line class="a" x1="89.71" y1="53.61" x2="89.71" y2="64.84"/><line class="a" x1="40.31" y1="76.47" x2="99.41" y2="76.47"/><line class="a" x1="50.45" y1="87.91" x2="58.59" y2="87.91"/><line class="a" x1="65.95" y1="87.91" x2="74.09" y2="87.91"/><line class="a" x1="81.45" y1="87.91" x2="89.59" y2="87.91"/><line class="a" x1="50.45" y1="100.5" x2="58.59" y2="100.5"/><line class="a" x1="65.95" y1="100.5" x2="74.09" y2="100.5"/><line class="c" x1="81.45" y1="100.5" x2="89.59" y2="100.5"/><line class="a" x1="50.45" y1="112.91" x2="58.59" y2="112.91"/><line class="a" x1="65.95" y1="112.91" x2="74.09" y2="112.91"/><line class="a" x1="81.45" y1="112.91" x2="89.59" y2="112.91"/><path class="b" d="M85.13,93.85h0a6.73,6.73,0,0,1,6.73,6.73h0a6.73,6.73,0,0,1-6.73,6.73h0a6.73,6.73,0,0,1-6.73-6.73h0A6.73,6.73,0,0,1,85.13,93.85Z"/><polyline class="d" points="81.78 100.75 84.43 102.85 87.91 98.62"/><line class="e" x1="36.72" y1="16.36" x2="47.18" y2="36.26"/><line class="e" x1="70.91" y1="22.18" x2="70.91" y2="37.21"/><line class="e" x1="12.29" y1="48.91" x2="33.74" y2="58.17"/><line class="e" x1="18.5" y1="79.23" x2="19.91" y2="78.87"/><line class="e" x1="58.65" y1="43.92" x2="58.65" y2="44.77"/></svg>