<?xml version="1.0" encoding="utf-8"?>
<!-- Generator: Adobe Illustrator 23.0.1, SVG Export Plug-In . SVG Version: 6.00 Build 0)  -->
<svg version="1.1" id="Layer_1" xmlns="http://www.w3.org/2000/svg" xmlns:xlink="http://www.w3.org/1999/xlink" x="0px" y="0px"
	 viewBox="0 0 320 138" style="enable-background:new 0 0 320 138;" xml:space="preserve">
<style type="text/css">
	.st0{fill:#FFFFFF;stroke:#D6D4D5;stroke-width:1.2347;stroke-linecap:round;stroke-linejoin:round;stroke-miterlimit:10;}
	.st1{fill:#FFFFFF;stroke:#D6D4D5;stroke-width:0.6274;stroke-linecap:round;stroke-linejoin:round;stroke-miterlimit:10;}
	.st2{fill:#FFFFFF;stroke:#D6D4D5;stroke-width:0.385;stroke-linecap:round;stroke-linejoin:round;stroke-miterlimit:10;}
	.st3{fill:none;stroke:#DA1E48;stroke-width:1.2347;stroke-linecap:round;stroke-linejoin:round;stroke-miterlimit:10;}
	.st4{fill:none;stroke:#BABABA;stroke-width:1.2347;stroke-linecap:round;stroke-linejoin:round;stroke-miterlimit:10;}
	.st5{fill:none;stroke:#0C2D41;stroke-width:4.3131;stroke-linecap:round;stroke-linejoin:round;}
	.st6{fill:#DA1E48;}
	.st7{fill:#FFFFFF;}
	.st8{fill:#BABABA;}
	.st9{fill:#FFFFFF;stroke:#BABABA;stroke-width:0.5;stroke-miterlimit:10;}
	.st10{fill:#BABABA;stroke:#FFFFFF;stroke-miterlimit:10;}
	.st11{fill:#0D2D41;}
	.st12{fill:#D71E48;}
	.st13{fill:none;stroke:#BABABA;stroke-width:3;stroke-linecap:round;stroke-linejoin:round;stroke-miterlimit:10;}
</style>
<g>
	<g>
		<path class="st0" d="M222.2,14.2h-1.6c-0.4-0.9-1.4-1.5-2.4-1.5h-5.5c0,0,0,0,0-0.1v-1.5c0-2-1.6-3.5-3.5-3.5H204
			c-0.6-1.3-2-2.3-3.6-2.3h-4.6c-2.1,0-3.9,1.7-3.9,3.8l0,0c-2,0-3.5,1.6-3.5,3.5h-1.7c-1.6,0-3,1.3-3,3v1.1c0,1.6,1.3,3,3,3h8
			c0,1.5,1.2,2.6,2.7,2.6h21c1.4,0,2.5-1,2.7-2.4h1.4c1.6,0,2.9-1.3,2.9-2.9l0,0C225.1,15.5,223.8,14.2,222.2,14.2z"/>
	</g>
	<g>
		<path class="st1" d="M300.4,32.8h-0.9c-0.3-0.5-0.8-0.9-1.4-0.9h-3.2l0,0V31c0-1.1-0.9-2.1-2.1-2h-3c-0.4-0.8-1.2-1.3-2.1-1.3H285
			c-1.2,0-2.2,1-2.3,2.2l0,0c-1.1,0-2.1,0.9-2,2.1h-1c-0.9,0-1.7,0.8-1.7,1.7v0.6c0,0.9,0.8,1.7,1.7,1.7h4.7c0,0.9,0.7,1.5,1.6,1.5
			l12.2-0.1c0.8,0,1.5-0.6,1.6-1.4h0.8c0.9,0,1.7-0.8,1.7-1.7l0,0C302.1,33.6,301.4,32.8,300.4,32.8z"/>
	</g>
	<g>
		<path class="st2" d="M31.7,32.7h-0.6c-0.2-0.3-0.5-0.5-0.9-0.5h-2l0,0v-0.5c0-0.7-0.6-1.3-1.3-1.3H25c-0.2-0.5-0.7-0.8-1.3-0.8H22
			c-0.8,0-1.4,0.6-1.4,1.4l0,0c-0.7,0-1.3,0.6-1.3,1.3h-0.6c-0.6,0-1.1,0.5-1,1.1v0.4c0,0.6,0.5,1.1,1.1,1h2.9c0,0.5,0.4,0.9,1,0.9
			h7.5c0.5,0,0.9-0.4,1-0.8h0.5c0.6,0,1-0.5,1-1l0,0C32.7,33.2,32.3,32.7,31.7,32.7z"/>
	</g>
	<g>
		<g>
			<g>
				<path class="st8" d="M135.2,56.1c-0.8,0-1.5-0.7-1.5-1.5s0.7-1.5,1.5-1.5c0.8,0,1.5,0.7,1.5,1.5S136.1,56.1,135.2,56.1z
					 M135.2,54.1c-0.3,0-0.5,0.2-0.5,0.5c0,0.3,0.2,0.5,0.5,0.5s0.5-0.2,0.5-0.5C135.7,54.3,135.5,54.1,135.2,54.1z"/>
			</g>
			<g>
				<path class="st8" d="M191.9,45.2c-0.8,0-1.5-0.7-1.5-1.5s0.7-1.5,1.5-1.5c0.8,0,1.5,0.7,1.5,1.5S192.7,45.2,191.9,45.2z
					 M191.9,43.3c-0.3,0-0.5,0.2-0.5,0.5s0.2,0.5,0.5,0.5s0.5-0.2,0.5-0.5S192.1,43.3,191.9,43.3z"/>
			</g>
			<g>
				<path class="st8" d="M122.8,64.8c-0.8,0-1.5-0.7-1.5-1.5s0.7-1.5,1.5-1.5s1.5,0.7,1.5,1.5S123.6,64.8,122.8,64.8z M122.8,62.8
					c-0.3,0-0.5,0.2-0.5,0.5c0,0.3,0.2,0.5,0.5,0.5c0.3,0,0.5-0.2,0.5-0.5C123.3,63,123.1,62.8,122.8,62.8z"/>
			</g>
			<g>
				<path class="st8" d="M198.8,51.6c-0.6,0-1.1-0.5-1.1-1.1c0-0.6,0.5-1.1,1.1-1.1s1.1,0.5,1.1,1.1
					C199.9,51.1,199.4,51.6,198.8,51.6z M198.8,50.4C198.7,50.4,198.7,50.4,198.8,50.4C198.7,50.6,198.9,50.6,198.8,50.4
					C198.9,50.4,198.8,50.4,198.8,50.4z"/>
			</g>
			<g>
				<g>
					<path class="st8" d="M128.2,51.4c-0.5,0-0.9-0.4-0.9-0.9v-3.1c0-0.5,0.4-0.9,0.9-0.9c0.5,0,0.9,0.4,0.9,0.9v3.1
						C129.1,51,128.7,51.4,128.2,51.4z"/>
				</g>
				<g>
					<path class="st8" d="M129.8,49.9h-3.1c-0.5,0-0.9-0.4-0.9-0.9c0-0.5,0.4-0.9,0.9-0.9h3.1c0.5,0,0.9,0.4,0.9,0.9
						C130.7,49.5,130.3,49.9,129.8,49.9z"/>
				</g>
			</g>
			<g>
				<g>
					<path class="st8" d="M182,54.9c-0.4,0-0.7-0.3-0.7-0.7v-1.8c0-0.4,0.3-0.7,0.7-0.7c0.4,0,0.7,0.3,0.7,0.7v1.8
						C182.7,54.6,182.4,54.9,182,54.9z"/>
				</g>
				<g>
					<path class="st8" d="M182.9,54h-1.8c-0.4,0-0.7-0.3-0.7-0.7s0.3-0.7,0.7-0.7h1.8c0.4,0,0.7,0.3,0.7,0.7S183.3,54,182.9,54z"/>
				</g>
			</g>
			<g>
				<g>
					<path class="st8" d="M144.1,52.4c-0.4,0-0.7-0.3-0.7-0.7v-1.8c0-0.4,0.3-0.7,0.7-0.7c0.4,0,0.7,0.3,0.7,0.7v1.8
						C144.8,52.1,144.5,52.4,144.1,52.4z"/>
				</g>
				<g>
					<path class="st8" d="M145,51.5h-1.8c-0.4,0-0.7-0.3-0.7-0.7s0.3-0.7,0.7-0.7h1.8c0.4,0,0.7,0.3,0.7,0.7S145.4,51.5,145,51.5z"
						/>
				</g>
			</g>
		</g>
		<g>
			<g>
				<path class="st11" d="M151.2,63.8c-0.1-0.5-0.5-0.7-1-0.7c-1.5-0.1-1.8,1-1.8,1.5c0,0.8,0.2,1.5,1.8,1.5c0.3,0,1-0.3,1-0.8h2.2
					c-0.1,1.4-2.4,1.7-3.4,1.7c-2.1,0-3.9-0.4-3.8-2.5c0.1-1.5,1.5-2.5,4.2-2.4c1.5,0,3,0.5,3,1.6L151.2,63.8L151.2,63.8z
					 M172.9,63.8c-0.1-0.5-0.5-0.7-1-0.7c-1.5-0.1-1.8,1-1.8,1.5c0,0.8,0.2,1.5,1.8,1.5c0.3,0,1-0.3,1-0.8h2.2
					c-0.1,1.4-2.4,1.7-3.4,1.7c-2.1,0-3.9-0.4-3.8-2.5c0.1-1.5,1.5-2.5,4.2-2.4c1.5,0,3,0.5,3,1.6L172.9,63.8L172.9,63.8z
					 M153.7,62.3h2.8l2.4,3.4h0v-3.4h1.8V67h-2.7l-2.5-3.4h0V67h-1.8V62.3z M161.3,62.3h3.4c1.6,0,2.6,0.5,2.6,1.2
					c0,0.4-0.4,0.9-1.3,1.1v0c1.1,0.1,1.5,0.8,1.5,1.2c0,0.8-0.9,1.3-2.8,1.3h-3.4V62.3z M163.3,64.1h0.6c0.9,0,1.3-0.1,1.3-0.4
					c0-0.4-0.4-0.5-1.2-0.5h-0.7L163.3,64.1L163.3,64.1z M163.3,66h0.6c1.1,0,1.4-0.1,1.4-0.5c0-0.4-0.5-0.5-1.3-0.5h-0.7V66
					L163.3,66z"/>
				<path class="st11" d="M154.9,51.3l3.9,9l-8.1-5.6c-2-1.3-1.6-3.7-0.5-4.7C151.8,48.8,154.1,49.2,154.9,51.3L154.9,51.3z"/>
				<path class="st11" d="M160.3,49.2l-1.4,10.1l-4.1-9.6c-0.9-2.4,1.1-4,2.4-4C158.7,45.6,160.6,46.7,160.3,49.2z"/>
				<path class="st11" d="M166.5,49.7l-4,9.6l-1.3-8.7c-0.1-1.3,0.7-1.3,1-1.6c-0.1-0.2-0.5-0.2-0.5-0.2h-0.8
					c-0.1-2.3,1.7-3.2,3.1-3.1C165.6,45.8,167.3,47.5,166.5,49.7L166.5,49.7z"/>
				<path class="st11" d="M170.6,54.7l-8.1,5.6l3.8-8.9c1.2-2.8,3.8-2.3,4.8-1.2C172.2,51.3,172.5,53.4,170.6,54.7z"/>
				<path class="st11" d="M171.4,61.3h-9.4l7.6-5.3c1.9-1.2,3.8-0.1,4.4,1.5C174.6,59.3,173.4,61.3,171.4,61.3z"/>
				<path class="st11" d="M147.2,57.4c0.7-1.9,2.7-2.5,4.5-1.4l7.6,5.3H150C148.1,61.3,146.6,59.5,147.2,57.4L147.2,57.4z"/>
			</g>
			<g>
				<path class="st11" d="M153.8,67.8h2.9v0.8h-1V71h-1v-2.4h-1V67.8z"/>
				<path class="st11" d="M156.9,67.8h1l0.7,2.3l0.7-2.3h1l-1.2,3.1h-1L156.9,67.8z"/>
				<path class="st11" d="M163.9,67.8V71H163v-2.1c-0.1,0.1-0.3,0.2-0.4,0.3c-0.1,0.1-0.3,0.1-0.5,0.2v-0.7c0.3-0.1,0.5-0.2,0.7-0.3
					c0.2-0.1,0.3-0.3,0.4-0.5H163.9z"/>
				<path class="st11" d="M165.3,69.3c-0.1-0.1-0.2-0.2-0.3-0.2c-0.1-0.1-0.1-0.3-0.1-0.4c0-0.3,0.1-0.5,0.4-0.6
					c0.2-0.1,0.4-0.2,0.8-0.2c0.4,0,0.7,0.1,0.9,0.2c0.2,0.2,0.3,0.4,0.3,0.6c0,0.1,0,0.3-0.1,0.4c-0.1,0.1-0.2,0.2-0.3,0.3
					c0.2,0.1,0.3,0.2,0.4,0.3c0.1,0.1,0.1,0.3,0.1,0.4c0,0.2,0,0.3-0.1,0.4c-0.1,0.1-0.2,0.2-0.3,0.3s-0.2,0.1-0.4,0.2
					c-0.2,0-0.3,0.1-0.5,0.1c-0.3,0-0.6,0-0.8-0.1c-0.2-0.1-0.3-0.2-0.4-0.3s-0.1-0.3-0.1-0.5c0-0.2,0-0.3,0.1-0.5
					C165,69.4,165.2,69.3,165.3,69.3z M165.7,70c0,0.1,0,0.3,0.1,0.3c0.1,0.1,0.2,0.1,0.3,0.1c0.1,0,0.2,0,0.3-0.1
					c0.1-0.1,0.1-0.2,0.1-0.3c0-0.1,0-0.3-0.1-0.3c-0.1-0.1-0.2-0.1-0.3-0.1c-0.1,0-0.2,0-0.3,0.1C165.7,69.7,165.7,69.9,165.7,70z
					 M165.7,68.7c0,0.1,0,0.2,0.1,0.3c0.1,0.1,0.2,0.1,0.3,0.1c0.1,0,0.2,0,0.2-0.1c0.1-0.1,0.1-0.2,0.1-0.3c0-0.1,0-0.2-0.1-0.3
					c-0.1-0.1-0.2-0.1-0.3-0.1c-0.1,0-0.2,0-0.3,0.1C165.8,68.5,165.7,68.6,165.7,68.7z"/>
			</g>
		</g>
		<g>
			<g>
				<g>
					<path class="st12" d="M154.3,113.1h-5.6v-1.5l2.5-2.7c0.4-0.4,0.6-0.8,0.6-1c0-0.3-0.2-0.4-0.5-0.4c-0.5,0-1.1,0.3-1.7,0.8
						l-0.2,0.2l-0.9-1.7l0.2-0.1c1-0.7,1.9-1.1,2.9-1.1c1.5,0,2.6,0.8,2.6,2c0,0.7-0.4,1.5-1.4,2.5l-1,1.1h2.6V113.1z M149.1,112.6
						h4.6v-0.9h-3.2l1.8-1.9c0.8-0.9,1.2-1.5,1.2-2.1c0-0.9-0.8-1.5-2.1-1.5c-0.8,0-1.7,0.3-2.5,0.9l0.4,0.8
						c0.6-0.5,1.3-0.7,1.8-0.7c0.6,0,1,0.3,1,0.9c0,0.4-0.3,0.9-0.7,1.4l-2.4,2.5V112.6z"/>
				</g>
				<g>
					<path class="st12" d="M158.2,113.2c-2.1,0-3.3-1.4-3.3-3.7c0-2.4,1.2-3.7,3.3-3.7c2.1,0,3.3,1.4,3.3,3.7
						C161.5,111.8,160.3,113.2,158.2,113.2z M158.2,106.2c-2.3,0-2.8,1.8-2.8,3.2c0,1.5,0.5,3.2,2.8,3.2c1.8,0,2.8-1.2,2.8-3.2
						C161,107.3,160,106.2,158.2,106.2z M158.2,111.9c-1.3,0-1.5-1.3-1.5-2.5c0-1.1,0.2-2.5,1.5-2.5c1.3,0,1.5,1.3,1.5,2.5
						C159.7,110.6,159.6,111.9,158.2,111.9z M158.2,107.5c-0.5,0-1,0.2-1,2c0,1.8,0.5,2,1,2c0.5,0,1-0.2,1-2
						C159.2,107.7,158.7,107.5,158.2,107.5z"/>
				</g>
				<g>
					<path class="st12" d="M165.4,113.1h-2.3v-5.5h-1.3v-1.9h3.5V113.1z M163.7,112.6h1.2v-6.4h-2.5v0.9h1.3V112.6z"/>
				</g>
				<g>
					<path class="st12" d="M169.7,113.2c-1.9,0-3.1-0.9-3.1-2.2c0-0.7,0.4-1.4,1.1-1.8c-0.5-0.4-0.7-0.9-0.7-1.4c0-1.2,1.1-2,2.7-2
						c1.6,0,2.7,0.8,2.7,2.1c0,0.5-0.2,1-0.6,1.4c0.6,0.4,1,1,1,1.8C172.7,112.3,171.5,113.2,169.7,113.2z M169.7,106.2
						c-1.4,0-2.2,0.6-2.2,1.5c0,0.5,0.3,1,0.8,1.3l0.5,0.3l-0.5,0.2c-0.7,0.3-1.1,0.9-1.1,1.5c0,1.1,1,1.7,2.6,1.7
						c1.6,0,2.6-0.7,2.6-1.8c0-0.7-0.4-1.2-1.1-1.5l-0.5-0.2l0.5-0.3c0.5-0.3,0.7-0.7,0.7-1.2C171.9,106.8,171,106.2,169.7,106.2z
						 M169.7,111.9c-0.9,0-1.4-0.4-1.4-1.2c0-0.7,0.5-1.1,1.4-1.1c0.9,0,1.4,0.4,1.4,1.1C171.1,111.5,170.6,111.9,169.7,111.9z
						 M169.7,110.1c-0.6,0-0.9,0.2-0.9,0.6c0,0.4,0.3,0.7,0.9,0.7c0.9,0,0.9-0.5,0.9-0.7C170.6,110.4,170.3,110.1,169.7,110.1z
						 M169.7,108.9c-0.8,0-1.2-0.4-1.2-1c0-0.7,0.5-1,1.2-1c0.8,0,1.2,0.4,1.2,1C170.9,108.5,170.4,108.9,169.7,108.9z M169.7,107.3
						c-0.7,0-0.7,0.4-0.7,0.5c0,0.1,0,0.5,0.7,0.5c0.7,0,0.7-0.4,0.7-0.5C170.4,107.7,170.4,107.3,169.7,107.3z"/>
				</g>
			</g>
			<g>
				<g>
					<g>
						<rect x="133.2" y="109.2" class="st12" width="9.8" height="1"/>
					</g>
				</g>
				<g>
					<g>
						<rect x="178.2" y="109.2" class="st12" width="9.8" height="1"/>
					</g>
				</g>
			</g>
		</g>
		<g>
			<g>
				<path class="st12" d="M131.7,87.3c-0.9,0-1.7-0.1-2.6-0.4c-0.9-0.3-1.6-0.7-2.3-1.2l-0.2-0.1l1.4-2.8l0.2,0.2
					c0.5,0.4,1,0.7,1.7,1c0.7,0.3,1.3,0.4,1.7,0.4c0.2,0,0.3,0,0.4-0.1c0,0,0.1-0.1,0.1-0.2c0,0,0-0.2-0.2-0.3
					c-0.2-0.1-0.6-0.2-1.2-0.4c-0.7-0.2-1.2-0.4-1.7-0.5c-0.5-0.2-0.9-0.5-1.2-0.9c-0.4-0.4-0.5-1-0.5-1.7c0-0.7,0.2-1.3,0.5-1.8
					c0.4-0.5,0.9-0.9,1.5-1.2c0.6-0.3,1.4-0.4,2.2-0.4c0.8,0,1.5,0.1,2.3,0.3c0.7,0.2,1.4,0.5,2,0.8l0.2,0.1l-1.3,2.8l-0.2-0.1
					c-0.5-0.3-1.1-0.5-1.7-0.8c-0.6-0.2-1.1-0.3-1.4-0.3c-0.3,0-0.3,0.1-0.3,0.2c0,0,0,0.2,0.2,0.3c0.2,0.1,0.6,0.2,1.1,0.4
					c0.7,0.2,1.3,0.4,1.7,0.6c0.5,0.2,0.9,0.5,1.3,1c0.4,0.5,0.6,1,0.6,1.8c0,0.7-0.2,1.4-0.6,1.9c-0.4,0.5-0.9,0.9-1.5,1.1
					C133.2,87.1,132.5,87.3,131.7,87.3z M127.3,85.4c0.6,0.4,1.2,0.7,2,1c1.5,0.5,3.1,0.5,4.4,0.1c0.6-0.2,1-0.5,1.3-0.9
					c0.3-0.4,0.5-0.9,0.5-1.6c0-0.6-0.1-1.1-0.4-1.4c-0.3-0.4-0.7-0.6-1.1-0.8c-0.4-0.2-1-0.4-1.6-0.6c-0.6-0.1-0.9-0.3-1.2-0.4
					c-0.4-0.2-0.5-0.5-0.5-0.7c0-0.2,0.1-0.7,0.8-0.7c0.4,0,1,0.1,1.6,0.4c0.5,0.2,1,0.4,1.5,0.7l0.9-1.9c-0.5-0.3-1-0.5-1.6-0.7
					c-0.7-0.2-1.4-0.3-2.1-0.3c-0.8,0-1.4,0.1-2,0.4c-0.6,0.2-1,0.6-1.3,1c-0.3,0.4-0.5,0.9-0.5,1.5c0,0.6,0.1,1,0.4,1.4
					c0.3,0.4,0.6,0.6,1.1,0.8c0.4,0.2,1,0.4,1.6,0.5c0.6,0.1,1,0.3,1.2,0.4c0.4,0.2,0.5,0.5,0.5,0.7c0,0.3-0.2,0.5-0.3,0.6
					c-0.2,0.1-0.4,0.2-0.7,0.2c-0.5,0-1.1-0.1-1.9-0.5c-0.6-0.3-1.2-0.6-1.6-0.9L127.3,85.4z"/>
			</g>
			<g>
				<path class="st12" d="M141.9,87.1h-3.6v-7h-2.7v-3h9v3h-2.7V87.1z M138.8,86.6h2.6v-7h2.7v-2h-8v2h2.7V86.6z"/>
			</g>
			<g>
				<path class="st12" d="M154.6,87.1h-3.9l-0.5-1.3h-3.2l-0.5,1.3h-3.7l4.2-9.9h3.5L154.6,87.1z M151.1,86.6h2.8l-3.6-8.9h-2.9
					l-3.8,8.9h2.6l0.5-1.3h3.9L151.1,86.6z M150,83.5h-2.7l1.4-3.8L150,83.5z M148,83h1.2l-0.6-1.8L148,83z"/>
			</g>
			<g>
				<path class="st12" d="M164.1,87.1H160l-1.1-2.4h-0.8v2.4h-3.6v-9.9h4.8c1.3,0,2.4,0.3,3.1,0.9c0.8,0.6,1.1,1.5,1.1,2.7
					c0,0.7-0.1,1.4-0.4,1.9c-0.2,0.5-0.6,0.9-1,1.2L164.1,87.1z M160.3,86.6h2.9l-1.7-2.9l0.2-0.1c0.4-0.3,0.8-0.6,1-1.1
					c0.2-0.5,0.4-1,0.4-1.7c0-1-0.3-1.8-1-2.3c-0.6-0.5-1.6-0.8-2.8-0.8H155v8.9h2.6v-2.4h1.6L160.3,86.6z M159.3,82.3h-1.7v-2.7
					h1.7c0.4,0,0.7,0.1,1,0.4c0.2,0.2,0.3,0.6,0.3,1c0,0.4-0.1,0.8-0.3,1C160,82.1,159.7,82.3,159.3,82.3z M158.1,81.8h1.2
					c0.3,0,0.5-0.1,0.6-0.2c0.1-0.2,0.2-0.4,0.2-0.7c0-0.3-0.1-0.5-0.2-0.6c-0.1-0.1-0.3-0.2-0.6-0.2h-1.2V81.8z"/>
			</g>
			<g>
				<path class="st12" d="M169.9,87.1h-3.6v-7h-2.7v-3h9v3h-2.7V87.1z M166.8,86.6h2.6v-7h2.7v-2h-8v2h2.7V86.6z"/>
			</g>
			<g>
				<path class="st12" d="M177.4,87.3c-0.9,0-1.7-0.2-2.5-0.5c-0.7-0.4-1.3-0.9-1.7-1.5c-0.4-0.7-0.6-1.4-0.6-2.3v-5.8h3.6v5.8
					c0,0.4,0.1,0.7,0.3,0.9l0,0c0.2,0.2,0.5,0.3,0.8,0.3c0.3,0,0.5-0.1,0.7-0.3c0.2-0.2,0.3-0.5,0.3-0.9v-5.8h3.6v5.8
					c0,0.9-0.2,1.6-0.6,2.3c-0.4,0.7-0.9,1.2-1.6,1.5C179.1,87.1,178.3,87.3,177.4,87.3z M173.2,77.7v5.2c0,0.8,0.2,1.5,0.5,2
					c0.3,0.6,0.8,1,1.5,1.3c0.6,0.3,1.4,0.5,2.2,0.5c0.8,0,1.6-0.2,2.2-0.5c0.6-0.3,1.1-0.8,1.4-1.3c0.3-0.6,0.5-1.3,0.5-2v-5.2
					h-2.6v5.2c0,0.5-0.1,0.9-0.4,1.3c-0.3,0.3-0.7,0.5-1.1,0.5c-0.4,0-0.8-0.2-1.1-0.5v0c-0.3-0.3-0.5-0.8-0.5-1.3v-5.2H173.2z"/>
			</g>
			<g>
				<path class="st12" d="M186.4,87.1h-3.6v-9.9h4.7c1.3,0,2.3,0.3,3,0.9l0,0c0.7,0.6,1.1,1.5,1.1,2.7c0,1.2-0.4,2.2-1.1,2.8
					c-0.7,0.7-1.7,1-3,1h-1.1V87.1z M183.2,86.6h2.6v-2.4h1.6c1.2,0,2.1-0.3,2.7-0.9c0.6-0.6,0.9-1.4,0.9-2.5c0-1-0.3-1.8-0.9-2.3
					c-0.6-0.5-1.5-0.8-2.7-0.8h-4.2V86.6z M187.3,82.3h-1.4v-2.7h1.4c0.4,0,0.7,0.1,1,0.4c0.2,0.2,0.3,0.6,0.3,1
					c0,0.4-0.1,0.8-0.3,1l0,0C188,82.1,187.7,82.3,187.3,82.3z M186.4,81.8h0.9c0.3,0,0.5-0.1,0.6-0.2l0,0c0.1-0.2,0.2-0.4,0.2-0.7
					c0-0.3-0.1-0.5-0.2-0.6c-0.1-0.1-0.3-0.2-0.6-0.2h-0.9V81.8z"/>
			</g>
			<g>
				<path class="st12" d="M119.8,99.9c-1,0-2-0.2-2.8-0.7c-0.8-0.4-1.5-1.1-1.9-1.9c-0.5-0.8-0.7-1.7-0.7-2.7c0-1,0.2-1.9,0.7-2.7
					c0.5-0.8,1.1-1.4,1.9-1.8c0.8-0.4,1.8-0.7,2.8-0.7c1,0,2,0.2,2.8,0.7h0c0.8,0.4,1.5,1.1,1.9,1.8c0.5,0.8,0.7,1.7,0.7,2.6
					c0,1-0.2,1.9-0.7,2.7c-0.5,0.8-1.1,1.4-1.9,1.9C121.7,99.6,120.8,99.9,119.8,99.9z M119.8,90.1c-0.9,0-1.8,0.2-2.5,0.6
					c-0.7,0.4-1.3,0.9-1.7,1.6c-0.4,0.7-0.6,1.5-0.6,2.4c0,0.9,0.2,1.7,0.6,2.4c0.4,0.7,1,1.3,1.7,1.7c0.7,0.4,1.6,0.6,2.5,0.6
					s1.8-0.2,2.5-0.6c0.7-0.4,1.3-1,1.7-1.7c0.4-0.7,0.6-1.5,0.6-2.4c0-0.9-0.2-1.7-0.6-2.4c-0.4-0.7-1-1.3-1.7-1.7
					C121.6,90.3,120.7,90.1,119.8,90.1z M119.8,97.3c-0.4,0-0.8-0.1-1.1-0.4c-0.3-0.2-0.6-0.5-0.8-0.9c-0.2-0.4-0.3-0.8-0.3-1.3
					c0-0.5,0.1-0.9,0.3-1.3c0.2-0.4,0.5-0.7,0.8-0.9l0,0c0.7-0.5,1.6-0.5,2.3,0c0.3,0.2,0.6,0.5,0.8,0.9c0.2,0.4,0.3,0.8,0.3,1.3
					c0,0.5-0.1,0.9-0.3,1.3c-0.2,0.4-0.5,0.7-0.8,0.9C120.6,97.2,120.2,97.3,119.8,97.3z M119,92.9c-0.3,0.2-0.5,0.4-0.7,0.7
					c-0.2,0.3-0.2,0.7-0.2,1.1c0,0.4,0.1,0.8,0.2,1.1c0.2,0.3,0.4,0.6,0.7,0.7c0.5,0.4,1.2,0.4,1.7,0c0.3-0.2,0.5-0.4,0.6-0.7
					c0.2-0.3,0.2-0.7,0.2-1.1c0-0.4-0.1-0.8-0.2-1.1c-0.1-0.3-0.4-0.6-0.6-0.7C120.2,92.6,119.5,92.6,119,92.9z"/>
			</g>
			<g>
				<path class="st12" d="M129.2,99.7h-3.6v-9.9h8.1v2.9h-4.5v1.1h4.2v2.9h-4.2V99.7z M126.1,99.2h2.6v-3.1h4.2v-1.9h-4.2v-2.1h4.5
					v-1.9h-7.1V99.2z"/>
			</g>
			<g>
				<path class="st12" d="M142.4,99.7h-3.6v-7h-2.7v-3h9v3h-2.7V99.7z M139.3,99.2h2.6v-7h2.7v-2h-8v2h2.7V99.2z"/>
			</g>
			<g>
				<path class="st12" d="M155,99.7h-3.6v-3.4h-2.4v3.4h-3.6v-9.9h3.6v3.6h2.4v-3.6h3.6V99.7z M151.9,99.2h2.6v-8.9h-2.6v3.6h-3.4
					v-3.6h-2.6v8.9h2.6v-3.4h3.4V99.2z"/>
			</g>
			<g>
				<path class="st12" d="M164.4,99.7h-8.6v-9.9h8.5v2.9h-4.8v0.7h4.4v2.9h-4.4v0.7h5V99.7z M156.3,99.2h7.6v-1.9h-5v-1.7h4.4v-1.9
					h-4.4v-1.7h4.8v-1.9h-7.5V99.2z"/>
			</g>
			<g>
				<path class="st12" d="M174,99.7h-3.6v-3l-3.6-6.9h3.7l1.7,3.3l1.7-3.3h3.7l-3.5,6.8V99.7z M170.9,99.2h2.6v-2.7l3.2-6.2h-2.5
					l-2,3.9l-2-3.9h-2.5l3.3,6.2V99.2z"/>
			</g>
			<g>
				<path class="st12" d="M186,99.7h-8.6v-9.9h8.5v2.9H181v0.7h4.4v2.9H181v0.7h5V99.7z M177.9,99.2h7.6v-1.9h-5v-1.7h4.4v-1.9h-4.4
					v-1.7h4.8v-1.9h-7.5V99.2z"/>
			</g>
			<g>
				<path class="st12" d="M197.5,99.7h-3.9l-0.5-1.3H190l-0.5,1.3h-3.7l4.2-9.9h3.5L197.5,99.7z M194,99.2h2.8l-3.6-8.9h-2.9
					l-3.8,8.9h2.6l0.5-1.3h3.9L194,99.2z M192.9,96.1h-2.7l1.4-3.7L192.9,96.1z M190.9,95.6h1.2l-0.6-1.8L190.9,95.6z"/>
			</g>
			<g>
				<path class="st12" d="M207,99.7h-4.1l-1.1-2.4H201v2.4h-3.6v-9.9h4.8c1.3,0,2.4,0.3,3.1,0.9c0.8,0.6,1.1,1.5,1.1,2.7
					c0,0.7-0.1,1.4-0.4,1.9c-0.2,0.5-0.6,0.9-1,1.2L207,99.7z M203.2,99.2h2.9l-1.7-2.9l0.2-0.1c0.4-0.3,0.8-0.6,1-1.1
					c0.2-0.5,0.4-1,0.4-1.7c0-1-0.3-1.8-1-2.3c-0.6-0.5-1.6-0.8-2.8-0.8h-4.3v8.9h2.6v-2.4h1.6L203.2,99.2z M202.2,94.9h-1.7v-2.7
					h1.7c0.4,0,0.7,0.1,1,0.4c0.2,0.2,0.3,0.6,0.3,1c0,0.4-0.1,0.8-0.3,1C202.9,94.7,202.6,94.9,202.2,94.9z M201,94.4h1.2
					c0.3,0,0.5-0.1,0.6-0.2c0.1-0.2,0.2-0.4,0.2-0.7c0-0.3-0.1-0.5-0.2-0.6c-0.1-0.1-0.3-0.2-0.6-0.2H201V94.4z"/>
			</g>
		</g>
		<g>
			<g>
				<path class="st8" d="M214.9,51.1c-2.5,0-4.7-0.9-6.7-2.7c-0.3-0.2-0.5-0.5-0.7-0.7c-0.1-0.1-0.2-0.3-0.4-0.4
					c-0.1-0.1-0.1-0.2-0.2-0.2c0,0,0,0,0,0c-0.1-0.1-0.2-0.3-0.1-0.5c0.1-0.2,0.2-0.3,0.4-0.3c0.3,0,0.5-0.1,0.8-0.1
					c0.3,0,0.5,0,0.7-0.1c0.3,0,0.5,0,0.7-0.1c1.4-0.1,2.8-0.3,4.3-0.1c1.3,0.2,3,0.6,4.2,1.9c0.2,0.2,0.5,0.6,0.8,1.1l1,0.9
					c0.2,0.2,0.2,0.4,0.1,0.6c-0.1,0.2-0.4,0.3-0.6,0.2c-0.5-0.2-0.9-0.1-1.5,0.1c-0.1,0-0.3,0.1-0.4,0.1
					C216.5,51,215.7,51.1,214.9,51.1z M208.3,47.1c0.2,0.2,0.3,0.4,0.5,0.5c2.4,2.2,5.2,2.9,8.3,2.2c0.1,0,0.3-0.1,0.4-0.1
					c0.2,0,0.3-0.1,0.5-0.1l-0.1,0c0,0-0.1-0.1-0.1-0.1c-0.3-0.4-0.5-0.7-0.7-0.9c-1-1.1-2.5-1.4-3.6-1.6c-1.4-0.2-2.8,0-4.1,0.1
					c-0.2,0-0.5,0-0.7,0.1C208.7,47.1,208.5,47.1,208.3,47.1z M206.9,47.1C206.9,47.1,206.9,47.1,206.9,47.1
					C206.9,47.1,206.9,47.1,206.9,47.1z"/>
			</g>
			<g>
				<path class="st8" d="M220.7,58.5c-2.5,0-4.8-1-6.8-2.9c-0.7-0.6-1.2-1.3-1.7-2c-0.1-0.2-0.2-0.3-0.3-0.5c0,0,0,0,0-0.1
					c-0.1-0.1-0.1-0.3-0.2-0.4c-0.1-0.2-0.1-0.4,0-0.5c0.1-0.2,0.3-0.3,0.5-0.2c0.6,0.1,1.2,0.1,1.7,0.2c0.4,0,0.7,0.1,1.1,0.1
					c1.4,0.1,2.8,0.3,4.1,0.7c1.2,0.3,2.1,0.8,2.8,1.6c0.8,0.7,1.2,1.6,1.4,2.6c0,0.1,0,0.2,0,0.2c-0.1,0.4-0.7,1.1-1.8,1.1
					C221.2,58.5,220.9,58.5,220.7,58.5z M213,53.1C213,53.1,213,53.1,213,53.1c0.5,0.7,1,1.3,1.6,1.9c2,1.9,4.3,2.8,6.8,2.6
					c0,0,0,0,0,0c0.5,0,0.7-0.2,0.8-0.3c-0.1-0.7-0.5-1.3-1.1-1.9c-0.6-0.6-1.4-1.1-2.4-1.4c-1.2-0.4-2.5-0.6-3.9-0.7
					c-0.4,0-0.8-0.1-1.1-0.1C213.5,53.1,213.2,53.1,213,53.1z"/>
			</g>
			<g>
				<path class="st8" d="M225.8,68.5c-0.3,0-0.6-0.1-0.9-0.1c-2.5-0.4-4.6-1.8-6.4-4.2c-0.8-1.1-1.5-2.4-1.9-4.1
					c-0.1-0.2-0.1-0.4-0.1-0.7c0-0.2,0.1-0.3,0.2-0.4c0.1-0.1,0.3-0.1,0.5,0c0.8,0.3,1.6,0.6,2.3,0.9c2,0.8,4.2,1.6,5.9,3.2
					c1.4,1.3,2,2.8,1.8,4.5c0,0,0,0.1,0,0.1C226.9,68.3,226.3,68.5,225.8,68.5z M226.7,67.5L226.7,67.5L226.7,67.5z M217.6,60.2
					c0.4,1.3,1,2.4,1.6,3.3c1.6,2.2,3.5,3.5,5.8,3.8c0,0,0,0,0.1,0c0.3,0.1,0.9,0.1,1,0c0.1-1.4-0.4-2.6-1.5-3.6
					c-1.6-1.4-3.5-2.2-5.6-3C218.6,60.6,218.1,60.4,217.6,60.2z"/>
			</g>
			<g>
				<path class="st8" d="M229.3,71c-0.1,0-0.3,0-0.4-0.1c-0.5-0.2-0.6-0.8-0.7-1c-0.5-2.3-0.6-4.4-0.2-6.5c0.6-2.5,1.9-4.6,3.9-6.4
					c0,0,0,0,0.1,0c0.1,0,0.1-0.1,0.2-0.2c0.1-0.1,0.2-0.2,0.4-0.4c0.1-0.1,0.3-0.1,0.5-0.1c0.2,0.1,0.3,0.2,0.3,0.4
					c0,0.2,0.1,0.4,0.1,0.5c0.1,0.4,0.2,0.8,0.3,1.2c0.5,2.8,0.3,5.7-0.6,8.6c-0.7,2-1.8,3.2-3.6,3.9C229.6,70.9,229.4,71,229.3,71z
					 M232.6,57.8c-1.8,1.6-3,3.6-3.5,5.8c-0.4,1.9-0.3,3.8,0.2,6c0,0.1,0.1,0.2,0.1,0.2c1.4-0.5,2.3-1.6,2.9-3.2
					c0.8-2.7,1-5.5,0.5-8.1C232.8,58.3,232.7,58,232.6,57.8C232.6,57.8,232.6,57.8,232.6,57.8z"/>
			</g>
			<g>
				<path class="st8" d="M228.7,81.5c-0.3,0-0.5-0.1-0.7-0.3c-0.3-0.3-0.3-0.6-0.3-0.8c0.1-1.8,0.2-3.6,1-5.4
					c1.3-2.9,3.5-5.3,6.6-6.9c0,0,0.1,0,0.1,0l0,0c0,0,0.1-0.1,0.2-0.1c0.2-0.1,0.3-0.1,0.5,0c0.1,0.1,0.2,0.3,0.2,0.4
					c0,0.2,0,0.4,0,0.5c0,0.3,0,0.7,0,1.1c-0.3,3.5-1.5,6.5-3.6,9.2c-1,1.4-2.4,2.1-4.1,2.2C228.7,81.5,228.7,81.5,228.7,81.5z
					 M235.4,69.3c-2.7,1.6-4.6,3.6-5.8,6.2c-0.7,1.6-0.9,3.3-0.9,5c1.3-0.1,2.4-0.7,3.3-1.8c2-2.5,3.1-5.4,3.4-8.7
					C235.5,69.7,235.5,69.5,235.4,69.3z M235.6,68.1C235.6,68.1,235.6,68.1,235.6,68.1C235.6,68.1,235.6,68.1,235.6,68.1z"/>
			</g>
			<g>
				<path class="st8" d="M227.1,93c-0.4,0-0.7,0-1.1-0.1c-0.4,0-0.6-0.2-0.8-0.4c-0.3-0.4-0.1-0.9-0.1-1c0.7-2.2,1.7-3.9,3-5.3
					c2.3-2.3,5-3.8,8.1-4.4c0.2,0,0.3,0,0.4,0.1c0.1,0.1,0.2,0.3,0.2,0.4c0,0.3-0.1,0.6-0.1,0.9c0,0.1,0,0.3-0.1,0.4c0,0,0,0,0,0
					c-0.5,1.9-1.6,3.4-2.7,4.9c-1.2,1.6-2.5,2.8-3.9,3.6C229.1,92.8,228.1,93,227.1,93z M226.1,91.9
					C226.1,91.9,226.1,91.9,226.1,91.9c1.2,0.3,2.3,0,3.5-0.6c1.3-0.7,2.5-1.8,3.6-3.3c1.1-1.4,2.1-2.8,2.6-4.5c0-0.1,0-0.3,0.1-0.4
					c0,0,0-0.1,0-0.1c-2.6,0.7-4.9,2-6.9,4C227.7,88.2,226.8,89.8,226.1,91.9C226.1,91.9,226.1,91.9,226.1,91.9z"/>
			</g>
			<g>
				<path class="st8" d="M222.6,104.8c-1,0-1.9-0.2-2.7-0.7c-0.1,0-0.1,0-0.2-0.1c0,0,0,0,0,0c-0.4-0.1-0.6-0.4-0.6-0.5
					c-0.1-0.4,0.2-0.8,0.3-1c1.4-2,2.9-3.5,4.7-4.5c2.6-1.5,5.4-2,8.5-1.7c0.2,0,0.3,0,0.4,0.1c0.2,0.1,0.3,0.4,0.2,0.6
					c0,0.1-0.1,0.1-0.1,0.2c-0.1,0.3-0.2,0.6-0.4,1c-2.2,3.2-4.9,5.3-8.1,6.2C224,104.7,223.3,104.8,222.6,104.8z M220.2,103.2
					C220.3,103.2,220.3,103.2,220.2,103.2c1.3,0.7,2.6,0.8,4.2,0.3c3-0.9,5.5-2.8,7.5-5.8c0.1-0.1,0.1-0.3,0.2-0.4
					c-2.8-0.2-5.2,0.4-7.5,1.6C223,99.9,221.5,101.3,220.2,103.2C220.2,103.2,220.2,103.2,220.2,103.2z"/>
			</g>
			<g>
				<path class="st8" d="M216.7,114.2c-0.2,0-0.3,0-0.5,0c-1.8-0.1-3.2-0.7-4.3-1.8l-0.1-0.1c-0.2-0.2-0.4-0.5-0.5-0.5
					c-0.1-0.1-0.1-0.3-0.1-0.4c0-0.1,0.1-0.3,0.3-0.3c0.1-0.1,0.3-0.1,0.4-0.2c0.1,0,0.2-0.1,0.3-0.1c2-1.7,4.1-2.6,6.4-2.9
					c2.7-0.3,5.4,0.1,8.2,1.3c0.1,0,0.3,0.1,0.4,0.3c0.2,0.2,0.2,0.5,0,0.7c-0.1,0.1-0.2,0.2-0.3,0.3c-0.1,0.1-0.2,0.3-0.3,0.4
					c0,0,0,0,0,0c-1.2,1-2.6,1.8-4.6,2.5C220.1,113.9,218.4,114.2,216.7,114.2z M212.5,111.6L212.5,111.6c0.9,1,2.1,1.5,3.7,1.5
					c1.8,0.1,3.5-0.2,5.4-0.9c1.9-0.6,3.2-1.3,4.3-2.3c0.1-0.1,0.1-0.1,0.2-0.2c-2.5-1-4.9-1.3-7.3-1c-2.2,0.3-4.1,1.1-5.9,2.7
					c0,0,0,0,0,0C212.7,111.6,212.6,111.6,212.5,111.6z"/>
			</g>
			<g>
				<path class="st8" d="M209.2,120.5c-1.9,0-3.5-0.3-5-0.8c-1.5-0.6-2.6-1.5-3.3-2.7c-0.4-0.2-0.6-0.7-0.6-1c0-0.3,0.2-0.4,0.5-0.4
					c0.2,0,0.5,0,0.6-0.1c0,0,0.1,0,0.1,0c1.6-0.6,3.4-1.2,5.2-1.2c3.3,0,6.4,1.1,9.3,3.3c0,0,0,0,0.1,0c0,0,0.1,0.1,0.1,0.1
					c0.1,0.1,0.2,0.2,0.3,0.3c0.1,0.1,0.2,0.3,0.1,0.4c0,0.2-0.1,0.3-0.3,0.4c-0.2,0.1-0.4,0.2-0.6,0.3c-0.2,0.1-0.4,0.3-0.7,0.4
					c0,0,0,0,0,0c-1.5,0.6-3,0.8-4.5,0.9C210.2,120.4,209.7,120.5,209.2,120.5z M201.9,116.5c0.5,1,1.4,1.7,2.7,2.2
					c1.8,0.6,3.7,0.8,6.1,0.7c1.3-0.1,2.8-0.3,4.1-0.9c0.2-0.1,0.4-0.2,0.6-0.3c-2.7-2-5.5-3-8.6-3c-1.7,0-3.3,0.5-4.8,1.1
					c0,0-0.1,0.1-0.2,0.1C201.8,116.4,201.8,116.5,201.9,116.5z M201.2,117.1C201.2,117.1,201.2,117.1,201.2,117.1
					C201.2,117.1,201.2,117.1,201.2,117.1z M200.9,116.7C200.9,116.7,200.9,116.7,200.9,116.7C200.9,116.7,200.9,116.7,200.9,116.7z
					"/>
			</g>
			<g>
				<path class="st8" d="M200.3,117C200.3,117,200.3,117,200.3,117c-0.3,0-0.5-0.2-0.5-0.5c0-0.3,0.2-0.5,0.4-0.5
					c0.1,0,0.1,0,0.3-0.3c0.2-0.4,0.2-0.8,0.2-1.3c-0.1-2.5,0.9-4.8,2.9-7c1.2-1.3,2.7-2.3,4.8-3.1c0.1-0.1,0.2-0.1,0.3-0.1
					c0,0,0.1,0,0.2,0c0.2-0.1,0.4,0,0.5,0.1c0.1,0.1,0.2,0.3,0.1,0.5c-0.3,0.8-0.5,1.6-0.7,2.4c-0.4,1.6-0.9,3.3-1.6,4.8
					c-0.8,1.6-2.1,2.8-3.8,3.6c-0.4,0.2-1.1,0.3-1.5,0.4C201.6,116.5,201.1,117,200.3,117z M208.3,105.5c-1.7,0.7-3,1.6-3.9,2.6
					c-1.9,2-2.7,4-2.7,6.3c0,0.2,0,0.4,0,0.5c0.3,0,1-0.2,1.3-0.3c1.5-0.6,2.6-1.7,3.3-3.1c0.7-1.4,1.2-3.1,1.6-4.6
					C208,106.5,208.2,106,208.3,105.5z"/>
			</g>
			<g>
				<path class="st8" d="M219.7,102.6c0,0-0.1,0-0.1,0c-0.2-0.1-0.4-0.3-0.4-0.5c0-0.6-0.3-1.2-0.7-1.8l-0.1-0.2
					c-1.1-1.6-1.6-3.6-1.5-6.1c0.1-2.2,0.7-4.4,2-6.5c0.1-0.1,0.1-0.2,0.2-0.3c0-0.1,0.1-0.1,0.2-0.2c0.1-0.2,0.3-0.2,0.5-0.2
					c0.2,0,0.4,0.2,0.4,0.4c0.1,0.3,0.2,0.5,0.3,0.7c0.1,0.2,0.1,0.4,0.2,0.6c0.6,1.7,1.3,3.5,1.8,5.3c0.6,2,0.4,3.9-0.4,5.6
					c-0.4,0.7-0.8,1.3-1.3,1.8c-0.2,0.4-0.5,1-0.6,1.1C220.1,102.5,219.9,102.6,219.7,102.6z M220.2,102.1L220.2,102.1L220.2,102.1z
					 M219.6,88.5c-1,1.8-1.6,3.7-1.7,5.7c-0.1,2.2,0.4,4,1.4,5.5l0.1,0.2c0.2,0.3,0.3,0.6,0.5,0.8c0,0,0-0.1,0.1-0.1
					c0.5-0.4,0.9-0.9,1.2-1.6c0.7-1.5,0.8-3.1,0.3-4.9c-0.5-1.8-1.1-3.6-1.7-5.3C219.7,88.8,219.6,88.7,219.6,88.5z"/>
			</g>
			<g>
				<path class="st8" d="M225.7,90.6C225.7,90.6,225.7,90.6,225.7,90.6c-1-0.1-2-0.7-2-0.7c0,0,0,0-0.1,0c-2-1.8-3.3-4.2-3.7-7.3
					c-0.2-1.4-0.1-2.9,0.3-4.7c0-0.2,0.1-0.4,0.2-0.6c0,0,0,0,0-0.1c0-0.2,0.2-0.3,0.3-0.3c0.2-0.1,0.4,0,0.6,0.2
					c0.5,0.7,1,1.4,1.5,2c1.2,1.5,2.4,3,3.2,4.8c0.8,1.7,1.1,3.3,0.7,4.8c-0.1,0.4-0.3,0.7-0.4,1c-0.1,0.2-0.2,0.4-0.3,0.5
					C226.1,90.4,225.9,90.6,225.7,90.6z M224.2,89c0.1,0.1,0.6,0.3,1.2,0.5c0-0.1,0.1-0.2,0.1-0.3c0.1-0.3,0.3-0.5,0.4-0.8
					c0.3-1.2,0.1-2.6-0.6-4.1c-0.8-1.7-2-3.2-3.1-4.6c-0.3-0.4-0.6-0.8-1-1.2c-0.3,1.5-0.4,2.8-0.2,3.9
					C221.3,85.2,222.4,87.4,224.2,89z M220.5,77.4C220.5,77.4,220.5,77.4,220.5,77.4C220.5,77.4,220.5,77.4,220.5,77.4z"/>
			</g>
			<g>
				<path class="st8" d="M227.6,79.7c-0.5,0-1.1-0.2-1.3-0.3c-1.9-0.8-3.3-2.2-4.6-4.5c-1-1.8-1.5-3.9-1.5-6.6c0-0.1,0-0.3,0.1-0.5
					c0.1-0.1,0.2-0.2,0.3-0.3c0.2,0,0.3,0,0.4,0.1c0.7,0.6,1.4,1.1,2.1,1.6c1.2,0.9,2.5,1.9,3.6,3.1c1.3,1.4,1.9,2.9,2.1,4.4
					c0.1,0.6,0,1.3-0.1,2.2c-0.1,0.3-0.2,0.6-0.5,0.7C228,79.6,227.8,79.7,227.6,79.7z M221.2,68.9c0.1,2.1,0.5,3.9,1.4,5.4
					c1.2,2.1,2.5,3.4,4.1,4.1c0,0,0,0,0,0c0.3,0.2,0.8,0.3,0.9,0.2c0,0,0,0,0,0c0.1-0.7,0.2-1.4,0.1-1.9c-0.1-1.3-0.7-2.6-1.8-3.8
					c-1-1.1-2.2-2-3.4-2.9C222.1,69.6,221.6,69.3,221.2,68.9z"/>
			</g>
			<g>
				<path class="st8" d="M226.3,60.9c-0.1,0-0.3,0-0.3-0.1c0,0,0,0,0,0c-0.5-0.4-0.7-0.9-0.8-0.9c-1.9-3.6-2.1-7.3-0.6-11.1
					c0.2-0.6,0.5-1.1,0.8-1.6c0.2-0.3,0.4-0.6,0.5-0.9c0.1-0.2,0.3-0.3,0.4-0.3h0.1c0.2,0,0.3,0.1,0.4,0.2c0.3,0.4,0.6,0.9,0.8,1.4
					c1.3,3.1,1.8,6,1.4,8.9c-0.2,1.8-1,3.2-2.4,4.1c0,0,0,0,0,0C226.7,60.7,226.6,60.9,226.3,60.9C226.3,60.9,226.3,60.9,226.3,60.9
					z M226.5,47.2c-0.1,0.1-0.1,0.2-0.2,0.3c-0.3,0.5-0.6,1-0.8,1.5c-1.4,3.5-1.3,7,0.5,10.3c0,0,0.1,0.1,0.2,0.3
					c1.1-0.8,1.8-1.9,1.9-3.4c0.3-2.8-0.1-5.5-1.4-8.4C226.8,47.7,226.6,47.5,226.5,47.2z"/>
			</g>
			<g>
				<path class="st8" d="M220.1,50.9c-0.1,0-0.2,0-0.2-0.1l-0.6-0.3c-0.1,0-0.1-0.1-0.2-0.1c-2-2.2-3.1-4.7-3.3-7.7
					c-0.1-1.5,0-3.1,0.4-4.7c0,0,0,0,0,0c0.1-0.2,0.1-0.4,0.3-0.8c0.1-0.2,0.2-0.3,0.3-0.3c0.2,0,0.3,0,0.4,0.1
					c0.6,0.5,1.1,1,1.5,1.5c1.8,2.1,2.9,4.2,3.2,6.4c0.3,1.5,0.2,2.9-0.2,4.1c-0.2,0.6-0.6,1.2-1.2,1.7c0,0,0,0-0.1,0.1
					C220.5,50.8,220.3,50.9,220.1,50.9z M219.8,49.7l0.2,0.1c0.4-0.4,0.7-0.7,0.8-1.2c0.4-1.1,0.5-2.3,0.2-3.5c-0.4-2-1.4-3.9-3-5.9
					c-0.3-0.3-0.5-0.6-0.9-0.9c0,0,0,0,0,0c-0.4,1.6-0.5,3-0.3,4.4C217,45.5,218,47.7,219.8,49.7z"/>
			</g>
			<g>
				<path class="st8" d="M192,118.6c-0.3,0-0.5-0.2-0.5-0.5c0-0.3,0.2-0.5,0.5-0.5c1.8-0.1,8.4-0.7,15.5-4.7
					c9.2-5.2,15.6-13.7,18.8-25.4c4-14.3,0-25.3-3.9-32c-4.3-7.3-9.7-11.2-9.7-11.2c-0.2-0.2-0.3-0.5-0.1-0.7
					c0.2-0.2,0.5-0.3,0.7-0.1c0.2,0.2,5.5,4.1,10,11.5c4.1,6.9,8.1,18.1,4.1,32.8c-3.3,12-9.8,20.7-19.3,26
					C200.6,117.8,193.9,118.5,192,118.6C192,118.6,192,118.6,192,118.6z"/>
			</g>
			<g>
				<path class="st8" d="M212.7,44.4C212.7,44.4,212.7,44.4,212.7,44.4c-3.9-0.4-6.6-2.4-8.3-5.9c-0.2-0.5-0.4-1-0.6-1.4
					c-0.1-0.3-0.2-0.6-0.3-0.8c-0.1-0.2,0-0.3,0.1-0.5c0.1-0.1,0.1-0.1,0.2-0.2c0.1-0.1,0.3-0.1,0.5-0.1c0.1,0,0.3,0.1,0.4,0.2
					c0.1,0,0.2,0.1,0.3,0.1c0.4,0.2,0.7,0.3,1.1,0.4c1.2,0.5,2.5,1,3.7,1.5c1.1,0.5,2.1,1.3,3,2.4c0.6,0.7,1.3,1.9,1,3.5
					c0,0.3-0.3,0.4-0.5,0.4C213.1,44.3,212.9,44.4,212.7,44.4z M204.8,36.8c0.1,0.4,0.3,0.9,0.5,1.3c1.5,3.2,4,4.9,7.4,5.3
					c0.1-0.9-0.1-1.7-0.8-2.6c-0.8-1-1.6-1.6-2.6-2.1c-1.2-0.5-2.4-1-3.6-1.5C205.4,37.1,205.1,37,204.8,36.8z M204,35.6
					C204,35.6,204,35.6,204,35.6C204,35.6,204,35.6,204,35.6z"/>
			</g>
			<g>
				<path class="st8" d="M211.3,111.5c-0.1,0-0.3-0.1-0.4-0.2c-0.2-0.2-0.2-0.5,0-0.7c0.1-0.1,0.1-0.2,0.2-0.4
					c0.1-0.4,0.1-1.2-0.2-2.1c-0.7-2.2-0.5-4.6,0.6-7.1c0.8-1.8,2-3.5,3.7-5c0,0,0.1-0.1,0.1-0.1c0,0,0,0,0,0
					c0.1-0.1,0.2-0.2,0.4-0.3c0.1,0,0.3,0,0.4,0.1c0.1,0.1,0.2,0.2,0.2,0.4l0,0.3c0.1,0.8,0.1,1.6,0.1,2.4c0.2,2,0.2,3.7-0.1,5.5
					c-0.3,2.4-1.4,4.3-2.9,5.4l-2,1.7C211.5,111.4,211.4,111.5,211.3,111.5z M215.5,97.1c-1.4,1.3-2.4,2.7-3.1,4.3
					c-1,2.3-1.1,4.4-0.5,6.4c0.1,0.4,0.3,1.1,0.3,1.7l0.8-0.7c0,0,0,0,0,0c1.7-1.2,2.3-3.5,2.5-4.7c0.3-1.7,0.2-3.3,0.1-5.3
					c0,0,0,0,0,0C215.5,98.3,215.5,97.7,215.5,97.1z"/>
			</g>
		</g>
		<g>
			<g>
				<path class="st8" d="M105.1,51.1c-0.8,0-1.6-0.1-2.5-0.3c-0.1,0-0.3-0.1-0.4-0.1c-0.5-0.1-1-0.2-1.5-0.1c-0.2,0.1-0.5,0-0.6-0.2
					c-0.1-0.2-0.1-0.5,0.1-0.6l1-0.9c0.3-0.5,0.6-0.8,0.8-1.1c1.2-1.3,2.9-1.7,4.2-1.9c1.5-0.2,2.9-0.1,4.3,0.1c0.2,0,0.5,0,0.7,0.1
					c0.3,0,0.5,0.1,0.8,0.1c0.3,0,0.5,0,0.8,0.1c0.2,0,0.4,0.2,0.4,0.3c0.1,0.2,0,0.4-0.1,0.5c0,0.1-0.1,0.2-0.2,0.2
					c-0.1,0.1-0.2,0.3-0.4,0.4c-0.2,0.2-0.4,0.5-0.7,0.7C109.8,50.2,107.6,51.1,105.1,51.1z M101.9,49.7c0.2,0,0.4,0.1,0.5,0.1
					c0.1,0,0.3,0.1,0.4,0.1c3.1,0.7,5.9,0,8.3-2.2c0.2-0.2,0.4-0.3,0.5-0.5c-0.2,0-0.4,0-0.6-0.1c-0.2,0-0.4,0-0.7-0.1
					c-1.3-0.1-2.7-0.3-4.1-0.1c-1.1,0.2-2.6,0.5-3.6,1.6c-0.2,0.2-0.4,0.5-0.7,1C102.1,49.5,102,49.6,101.9,49.7L101.9,49.7z
					 M113.1,47.1C113.1,47.1,113.1,47.1,113.1,47.1C113.1,47.1,113.1,47.1,113.1,47.1z"/>
			</g>
			<g>
				<path class="st8" d="M99.3,58.5c-0.2,0-0.5,0-0.7,0c-1.1,0-1.6-0.7-1.8-1.1c0-0.1,0-0.2,0-0.2c0.2-1,0.6-1.9,1.4-2.6
					c0.7-0.7,1.6-1.2,2.8-1.6c1.3-0.4,2.7-0.6,4-0.7c0.4,0,0.7-0.1,1.1-0.1c0.6-0.1,1.1-0.1,1.7-0.2c0.2,0,0.4,0.1,0.5,0.2
					c0.1,0.2,0.1,0.4,0,0.5c-0.1,0.2-0.2,0.3-0.2,0.4c0,0,0,0.1,0,0.1c-0.1,0.2-0.2,0.3-0.3,0.5c-0.5,0.7-1,1.4-1.7,2
					C104.1,57.6,101.8,58.5,99.3,58.5z M97.8,57.2c0.1,0.1,0.3,0.3,0.8,0.3c0,0,0,0,0,0c2.5,0.2,4.8-0.7,6.8-2.6
					c0.6-0.5,1.1-1.2,1.5-1.8c0,0,0,0,0,0c-0.2,0-0.5,0.1-0.7,0.1c-0.4,0-0.8,0.1-1.1,0.1c-1.4,0.1-2.6,0.3-3.8,0.7
					c-1.1,0.3-1.8,0.7-2.5,1.3C98.3,55.8,97.9,56.4,97.8,57.2z"/>
			</g>
			<g>
				<path class="st8" d="M94.2,68.5c-0.6,0-1.2-0.2-1.4-0.8c0,0,0-0.1,0-0.1c-0.1-1.7,0.5-3.2,1.8-4.5c1.7-1.6,3.9-2.4,5.9-3.2
					c0.8-0.3,1.6-0.6,2.3-0.9c0.2-0.1,0.3-0.1,0.5,0c0.1,0.1,0.2,0.3,0.2,0.4c0,0.2,0,0.4-0.1,0.7c-0.5,1.7-1.1,3-2,4.1
					c-1.8,2.4-3.9,3.8-6.4,4.2C94.8,68.4,94.5,68.5,94.2,68.5z M93.8,67.3c0.1,0.1,0.7,0.1,1,0c0,0,0,0,0.1,0
					c2.3-0.4,4.2-1.6,5.8-3.8c0.7-0.9,1.2-2,1.7-3.3c-0.5,0.2-1,0.4-1.5,0.6c-2,0.8-4,1.5-5.6,3C94.2,64.8,93.7,66,93.8,67.3z"/>
			</g>
			<g>
				<path class="st8" d="M90.7,71c-0.1,0-0.2,0-0.3-0.1c-1.7-0.6-2.9-1.9-3.6-3.9c-0.9-2.9-1.1-5.8-0.6-8.6c0-0.4,0.2-0.8,0.3-1.2
					c0.1-0.2,0.1-0.4,0.1-0.5c0-0.2,0.2-0.3,0.3-0.4c0.2-0.1,0.3,0,0.5,0.1c0.2,0.1,0.3,0.3,0.4,0.4c0.1,0.1,0.1,0.1,0.2,0.2
					c0,0,0,0,0.1,0c2,1.8,3.3,3.9,3.8,6.4c0.4,2.1,0.3,4.2-0.2,6.5c0,0.1-0.2,0.7-0.7,1C90.9,70.9,90.8,71,90.7,71z M90.7,70
					L90.7,70L90.7,70z M87.4,57.7c-0.1,0.3-0.2,0.6-0.2,0.8c-0.5,2.7-0.3,5.4,0.5,8.2c0.5,1.6,1.5,2.7,2.9,3.2
					c0-0.1,0.1-0.2,0.1-0.2c0.5-2.2,0.6-4.1,0.2-6.1C90.4,61.3,89.3,59.4,87.4,57.7C87.4,57.8,87.4,57.8,87.4,57.7z"/>
			</g>
			<g>
				<path class="st8" d="M91.3,81.5c0,0-0.1,0-0.1,0c-1.6-0.1-3-0.8-4.1-2.2c-2.1-2.7-3.3-5.7-3.6-9.3c0-0.3,0-0.7,0-1
					c0-0.2,0-0.3,0-0.5c0-0.2,0.1-0.3,0.2-0.4c0.1-0.1,0.3-0.1,0.5,0c0.1,0,0.1,0.1,0.2,0.1l0,0c0,0,0.1,0,0.1,0
					c3.1,1.7,5.3,4,6.6,6.9c0.8,1.8,0.9,3.6,1,5.4c0,0.1,0,0.5-0.3,0.8C91.9,81.4,91.7,81.5,91.3,81.5z M84.6,69.3
					c0,0.2,0,0.4,0,0.6c0.3,3.4,1.4,6.2,3.4,8.7c0.9,1.1,2,1.8,3.3,1.8c-0.1-1.7-0.2-3.4-0.9-5C89.1,72.9,87.3,70.8,84.6,69.3z
					 M84.4,68.1C84.4,68.1,84.4,68.1,84.4,68.1C84.4,68.1,84.4,68.1,84.4,68.1z"/>
			</g>
			<g>
				<path class="st8" d="M92.9,93c-1,0-2-0.3-3-0.9c-1.4-0.8-2.7-1.9-3.9-3.5c-1.1-1.5-2.2-3-2.7-4.9c0,0,0,0,0,0
					c0-0.1,0-0.3-0.1-0.4c0-0.3-0.1-0.5-0.1-0.9c0-0.2,0-0.3,0.2-0.4c0.1-0.1,0.3-0.2,0.4-0.1c3.1,0.6,5.8,2.1,8.1,4.4
					c1.4,1.4,2.3,3.2,3,5.4c0,0.1,0.2,0.6-0.1,1c-0.1,0.2-0.3,0.4-0.8,0.4C93.6,93,93.3,93,92.9,93z M84.3,83.5
					c0.5,1.7,1.5,3.1,2.6,4.5c1.1,1.5,2.3,2.6,3.6,3.3c1.2,0.7,2.3,0.9,3.4,0.6c0,0,0,0,0.1,0c0,0,0,0,0,0c-0.7-2.1-1.6-3.7-2.8-5
					c-2-2-4.3-3.3-6.9-3.9c0,0,0,0.1,0,0.1C84.2,83.2,84.3,83.3,84.3,83.5z"/>
			</g>
			<g>
				<path class="st8" d="M97.4,104.8c-0.7,0-1.4-0.1-2.1-0.3c-3.2-0.9-5.9-3-8.1-6.2c-0.2-0.3-0.3-0.7-0.5-1c0-0.1-0.1-0.2-0.1-0.2
					c-0.1-0.2,0-0.5,0.2-0.6c0.2-0.1,0.2-0.1,0.4-0.1c3.1-0.3,5.9,0.3,8.5,1.7c1.8,1,3.4,2.5,4.7,4.5c0.1,0.2,0.5,0.5,0.3,1
					c0,0.2-0.2,0.4-0.6,0.5c0,0,0,0,0,0c0,0-0.1,0-0.1,0.1C99.3,104.6,98.4,104.8,97.4,104.8z M87.8,97.3c0.1,0.2,0.1,0.3,0.2,0.5
					c2,3,4.5,4.9,7.5,5.8c1.6,0.4,2.9,0.3,4.2-0.3c0,0,0,0,0,0c0,0,0,0,0,0c-1.3-1.9-2.7-3.3-4.4-4.2C93,97.6,90.6,97.1,87.8,97.3z"
					/>
			</g>
			<g>
				<path class="st8" d="M103.3,114.2c-1.7,0-3.4-0.3-5.3-0.9c-2-0.7-3.4-1.5-4.6-2.5c0,0,0,0,0,0c-0.1-0.1-0.2-0.2-0.3-0.4
					c-0.1-0.1-0.2-0.2-0.3-0.3c-0.2-0.2-0.2-0.5,0-0.7c0.1-0.2,0.2-0.2,0.4-0.3c2.8-1.2,5.5-1.6,8.2-1.3c2.4,0.3,4.5,1.2,6.4,2.9
					c0.1,0,0.2,0.1,0.3,0.1c0.1,0,0.3,0.1,0.4,0.2c0.1,0.1,0.2,0.2,0.3,0.3c0,0.1,0,0.3-0.1,0.4c0,0-0.3,0.4-0.5,0.5l-0.1,0.1
					c-1,1.1-2.4,1.7-4.2,1.7C103.7,114.2,103.5,114.2,103.3,114.2z M94.1,110c1.1,0.9,2.4,1.6,4.3,2.3c1.9,0.7,3.6,0.9,5.4,0.9
					c1.5-0.1,2.7-0.5,3.6-1.4l0.1-0.1c-0.1,0-0.1-0.1-0.2-0.1c0,0,0,0,0,0c-1.8-1.5-3.8-2.4-5.9-2.7c-2.4-0.3-4.8,0-7.3,1
					C94,109.9,94.1,110,94.1,110z"/>
			</g>
			<g>
				<path class="st8" d="M110.8,120.5c-0.5,0-1,0-1.5,0c-1.5-0.1-3-0.3-4.5-0.9c0,0,0,0,0,0c-0.2-0.1-0.4-0.2-0.7-0.4
					c-0.2-0.1-0.4-0.2-0.6-0.3c-0.1-0.1-0.2-0.2-0.3-0.4c0-0.2,0-0.3,0.1-0.4c0.1-0.1,0.3-0.2,0.3-0.3c0.1,0,0.1-0.1,0.1-0.1
					c0,0,0,0,0.1,0c2.9-2.2,6-3.3,9.3-3.3c1.8,0,3.6,0.6,5.2,1.2c0,0,0.1,0,0.1,0c0.1,0.1,0.4,0.1,0.6,0.1c0.3,0,0.5,0.2,0.5,0.4
					c0,0.4-0.1,0.8-0.6,1c-0.6,1.2-1.7,2.1-3.2,2.7C114.3,120.2,112.7,120.5,110.8,120.5z M105.2,118.5c1.4,0.5,2.8,0.7,4.2,0.9
					c2.4,0.2,4.3-0.1,6.1-0.7c1.3-0.5,2.2-1.2,2.7-2.2c0-0.1,0-0.1,0.1-0.1c-0.1,0-0.1,0-0.2-0.1c-1.5-0.6-3.1-1.1-4.8-1.1
					c-3.1,0-5.9,1-8.6,3C104.9,118.3,105.1,118.4,105.2,118.5z M118.8,117.1C118.8,117.1,118.8,117.1,118.8,117.1
					C118.8,117.1,118.8,117.1,118.8,117.1z M119.1,116.7C119.1,116.7,119.1,116.7,119.1,116.7C119.1,116.7,119.1,116.7,119.1,116.7z
					"/>
			</g>
			<g>
				<path class="st8" d="M119.7,117c-0.8,0-1.3-0.6-1.6-1.1c-0.4-0.1-1.1-0.2-1.5-0.4c-1.7-0.7-3-1.9-3.8-3.6
					c-0.8-1.5-1.2-3.2-1.6-4.8c-0.2-0.8-0.4-1.6-0.7-2.4c-0.1-0.2,0-0.4,0.1-0.5c0.1-0.1,0.3-0.2,0.5-0.1c0.1,0,0.1,0,0.2,0
					c0.1,0,0.2,0,0.3,0.1c2.1,0.8,3.7,1.8,4.8,3.1c2,2.2,3,4.5,2.9,7c0,0.5,0.1,0.9,0.2,1.3c0.1,0.3,0.2,0.3,0.3,0.3
					c0.3,0.1,0.4,0.3,0.4,0.5C120.2,116.8,120,117,119.7,117C119.7,117,119.7,117,119.7,117z M111.7,105.5c0.1,0.5,0.3,1,0.4,1.4
					c0.4,1.6,0.9,3.2,1.6,4.6c0.7,1.4,1.8,2.5,3.3,3.1c0.3,0.1,1,0.2,1.3,0.3c0-0.2,0-0.3,0-0.5c0.1-2.2-0.8-4.3-2.7-6.3
					C114.7,107.1,113.4,106.2,111.7,105.5z"/>
			</g>
			<g>
				<path class="st8" d="M100.3,102.6c-0.2,0-0.3-0.1-0.4-0.2c-0.1-0.1-0.4-0.7-0.6-1.1c-0.5-0.5-1-1.1-1.3-1.8
					c-0.8-1.7-1-3.6-0.4-5.6c0.5-1.8,1.1-3.6,1.8-5.3c0.1-0.2,0.1-0.4,0.2-0.5c0.1-0.2,0.2-0.5,0.3-0.7c0.1-0.2,0.2-0.3,0.4-0.4
					c0.2,0,0.4,0.1,0.5,0.2c0.1,0.1,0.1,0.1,0.2,0.2c0.1,0.1,0.2,0.2,0.2,0.3c1.3,2.1,1.9,4.3,2,6.5c0.1,2.4-0.4,4.4-1.5,6.1
					l-0.1,0.1c-0.4,0.6-0.7,1.1-0.7,1.8c0,0.2-0.1,0.4-0.4,0.5C100.4,102.6,100.3,102.6,100.3,102.6z M100.4,88.5
					c-0.1,0.1-0.1,0.3-0.1,0.4c-0.6,1.7-1.3,3.5-1.7,5.3C98,96,98.1,97.6,98.8,99c0.3,0.6,0.7,1.1,1.2,1.6c0,0,0,0,0.1,0.1
					c0.1-0.3,0.3-0.6,0.5-0.8l0.1-0.1c1-1.5,1.5-3.3,1.4-5.5C102,92.3,101.4,90.4,100.4,88.5z"/>
			</g>
			<g>
				<path class="st8" d="M94.3,90.6c-0.2,0-0.4-0.1-0.5-0.3c-0.1-0.2-0.2-0.4-0.3-0.5c-0.2-0.3-0.3-0.6-0.4-1
					c-0.4-1.5-0.2-3.1,0.7-4.8c0.8-1.8,2.1-3.3,3.2-4.8c0.5-0.7,1-1.3,1.5-2c0.1-0.2,0.4-0.3,0.6-0.2c0.2,0.1,0.3,0.2,0.3,0.3
					c0,0,0,0,0,0.1c0.1,0.2,0.2,0.3,0.2,0.6c0.4,1.8,0.5,3.3,0.3,4.7c-0.4,3.1-1.6,5.5-3.7,7.3c0,0,0,0-0.1,0
					C96.3,89.9,95.4,90.5,94.3,90.6C94.3,90.6,94.3,90.6,94.3,90.6z M98.8,78.5c-0.3,0.4-0.6,0.8-1,1.2c-1.1,1.5-2.3,3-3.1,4.6
					c-0.7,1.5-0.9,2.9-0.6,4.1c0.1,0.2,0.2,0.5,0.4,0.8c0,0.1,0.1,0.2,0.1,0.3c0.5-0.1,1-0.4,1.2-0.5c1.8-1.6,2.9-3.8,3.3-6.6
					C99.2,81.2,99.1,80,98.8,78.5z M99.5,77.4C99.5,77.4,99.5,77.4,99.5,77.4C99.5,77.4,99.5,77.4,99.5,77.4z"/>
			</g>
			<g>
				<path class="st8" d="M92.4,79.7c-0.2,0-0.4,0-0.6-0.1c-0.3-0.1-0.5-0.4-0.5-0.7c-0.2-0.8-0.2-1.5-0.1-2.2c0.1-1.5,0.8-3,2.1-4.4
					c1.1-1.2,2.4-2.1,3.6-3.1c0.7-0.5,1.4-1.1,2.1-1.6c0.1-0.1,0.3-0.1,0.4-0.1c0.2,0,0.3,0.1,0.3,0.3c0.1,0.2,0.1,0.4,0.1,0.5
					c0,2.7-0.5,4.8-1.5,6.6c-1.3,2.3-2.8,3.8-4.6,4.5C93.5,79.4,92.9,79.7,92.4,79.7z M92.3,78.7L92.3,78.7L92.3,78.7z M92.3,78.6
					c0.2,0,0.6-0.1,0.9-0.2c0,0,0,0,0,0c1.7-0.7,3-2,4.1-4.1c0.9-1.5,1.3-3.2,1.4-5.4c-0.5,0.4-0.9,0.7-1.4,1.1
					c-1.2,0.9-2.4,1.8-3.5,2.9c-1.1,1.3-1.7,2.5-1.8,3.8C92.1,77.3,92.2,77.9,92.3,78.6C92.3,78.6,92.3,78.6,92.3,78.6
					C92.3,78.6,92.3,78.6,92.3,78.6z"/>
			</g>
			<g>
				<path class="st8" d="M93.7,60.9C93.7,60.9,93.7,60.9,93.7,60.9c-0.3,0-0.4-0.2-0.5-0.3c0,0,0,0,0,0c-1.4-1-2.2-2.4-2.4-4.2
					c-0.3-2.9,0.1-5.8,1.4-8.9c0.2-0.5,0.5-1,0.8-1.4c0.1-0.1,0.3-0.2,0.4-0.2h0.1c0.2,0,0.4,0.1,0.4,0.3c0.2,0.3,0.3,0.6,0.5,0.9
					c0.3,0.5,0.6,1,0.8,1.6c1.5,3.8,1.3,7.6-0.6,11.1c0,0-0.3,0.5-0.8,0.9C94,60.8,93.8,60.9,93.7,60.9z M93.5,47.2
					c-0.1,0.2-0.2,0.4-0.3,0.7c-1.2,2.9-1.7,5.6-1.4,8.4c0.1,1.5,0.8,2.6,1.9,3.4c0.1-0.2,0.2-0.3,0.2-0.3c1.8-3.3,2-6.8,0.5-10.3
					c-0.2-0.5-0.5-1-0.8-1.5C93.6,47.5,93.5,47.4,93.5,47.2z"/>
			</g>
			<g>
				<path class="st8" d="M99.9,50.9c-0.2,0-0.3-0.1-0.4-0.2c0,0,0,0-0.1-0.1c-0.5-0.5-0.9-1-1.2-1.7c-0.5-1.2-0.6-2.6-0.2-4.1
					c0.4-2.1,1.5-4.2,3.2-6.3c0.4-0.5,0.9-1,1.5-1.5c0.1-0.1,0.3-0.1,0.4-0.1c0.2,0,0.3,0.2,0.3,0.3c0.1,0.4,0.2,0.6,0.3,0.8
					c0,0,0,0,0,0c0.4,1.7,0.5,3.2,0.4,4.8c-0.2,3-1.3,5.5-3.3,7.7c0,0-0.1,0.1-0.2,0.1l-0.6,0.3C100,50.9,99.9,50.9,99.9,50.9z
					 M100.5,50.1L100.5,50.1L100.5,50.1z M102.8,38.3c-0.3,0.3-0.6,0.6-0.9,0.9c-1.7,2-2.7,3.9-3,5.9c-0.3,1.3-0.2,2.5,0.2,3.6
					c0.2,0.4,0.4,0.8,0.8,1.2l0.2-0.1c1.8-2,2.8-4.3,3-7C103.3,41.3,103.2,39.9,102.8,38.3C102.8,38.3,102.8,38.3,102.8,38.3z"/>
			</g>
			<g>
				<path class="st8" d="M128,118.6C128,118.6,128,118.6,128,118.6c-1.9-0.1-8.6-0.7-16-4.8c-9.5-5.3-16-14.1-19.3-26
					c-4.1-14.7,0-26,4.1-32.8c4.4-7.4,9.8-11.3,10-11.5c0.2-0.2,0.5-0.1,0.7,0.1c0.2,0.2,0.1,0.5-0.1,0.7c-0.1,0-5.4,4-9.7,11.2
					c-4,6.7-7.9,17.7-3.9,32c3.2,11.7,9.6,20.2,18.8,25.4c7.1,4,13.7,4.6,15.5,4.7c0.3,0,0.5,0.3,0.5,0.5
					C128.5,118.4,128.3,118.6,128,118.6z"/>
			</g>
			<g>
				<path class="st8" d="M107.3,44.4c-0.2,0-0.4-0.1-0.5-0.3c-0.3,0-0.5-0.2-0.5-0.4c-0.3-1.6,0.4-2.8,1-3.5c0.9-1.1,1.8-1.9,3-2.4
					c1.2-0.5,2.4-1,3.6-1.5c0.3-0.1,0.7-0.3,1-0.4c0.1,0,0.2-0.1,0.3-0.1c0.1-0.1,0.3-0.1,0.4-0.2c0.2-0.1,0.4,0,0.5,0.1
					c0.1,0,0.2,0.1,0.2,0.2c0.1,0.1,0.1,0.3,0.1,0.5c-0.1,0.3-0.2,0.5-0.3,0.8c-0.2,0.5-0.3,1-0.6,1.4C113.9,42,111.2,44,107.3,44.4
					C107.3,44.4,107.3,44.4,107.3,44.4z M115.2,36.8c-0.3,0.1-0.6,0.2-0.9,0.4c-1.2,0.5-2.4,1-3.6,1.5c-1,0.4-1.8,1.1-2.6,2.1
					c-0.7,0.9-0.9,1.7-0.8,2.6c3.5-0.4,5.9-2.1,7.4-5.3C114.9,37.7,115.1,37.3,115.2,36.8z M116,35.6C116,35.6,116,35.6,116,35.6
					C116,35.6,116,35.6,116,35.6z"/>
			</g>
			<g>
				<path class="st8" d="M108.7,111.5c-0.1,0-0.2,0-0.3-0.1l-2-1.7c-1.5-1.1-2.5-3-2.9-5.4c-0.3-1.8-0.2-3.5-0.1-5.5
					c0-0.8,0.1-1.5,0.1-2.4l0-0.3c0-0.2,0.1-0.3,0.2-0.4c0.1-0.1,0.3-0.1,0.4-0.1c0.2,0.1,0.4,0.2,0.4,0.3c0,0,0,0,0,0
					c0,0,0.1,0,0.1,0.1c1.7,1.5,2.9,3.1,3.7,5c1,2.5,1.2,4.9,0.6,7.1c-0.3,0.9-0.3,1.7-0.2,2.1c0,0.1,0.1,0.3,0.2,0.3
					c0.2,0.2,0.2,0.5,0,0.7C109,111.4,108.9,111.5,108.7,111.5z M104.5,97.1c0,0.6-0.1,1.2-0.1,1.8c0,0,0,0,0,0
					c-0.1,1.9-0.2,3.6,0.1,5.2c0.2,1.2,0.7,3.5,2.5,4.7c0,0,0,0,0,0l0.8,0.7c0-0.6,0.2-1.3,0.3-1.7c0.6-2,0.4-4.1-0.5-6.4
					C107,99.8,105.9,98.4,104.5,97.1z"/>
			</g>
		</g>
	</g>
</g>
</svg>
