<svg id="Layer_1" data-name="Layer 1" xmlns="http://www.w3.org/2000/svg" viewBox="0 0 320 138"><defs><style>.cls-1,.cls-2,.cls-3,.cls-5{fill:#fff;}.cls-1,.cls-2,.cls-3{stroke:#d3d3d3;}.cls-1,.cls-2,.cls-3,.cls-4,.cls-5{stroke-linejoin:round;}.cls-1,.cls-4,.cls-5{stroke-width:1.13px;}.cls-2{stroke-width:0.65px;}.cls-3{stroke-width:0.86px;}.cls-4{fill:none;stroke:#da2049;stroke-linecap:round;}.cls-5{stroke:#bbb;}</style></defs><title>MOBILE TIMELINE_2</title><path class="cls-1" d="M244.72,24.07h-5.14a3.19,3.19,0,0,0,.25-1.24v0a3.2,3.2,0,0,0-3.2-3.2h-1.74a4.84,4.84,0,0,0-4.57-3.27h-7.77a4.84,4.84,0,0,0-4.84,4.84h0a4.9,4.9,0,0,0,0,.49h-2.37a2.79,2.79,0,0,0-2.76,2.39h-.87a4,4,0,1,0,0,8h33a4,4,0,0,0,0-8Z"/><path class="cls-2" d="M85.42,8.42h-3a1.84,1.84,0,0,0,.14-.71h0a1.84,1.84,0,0,0-1.84-1.84h-1A2.79,2.79,0,0,0,77.12,4H72.64a2.79,2.79,0,0,0-2.79,2.79h0a2.82,2.82,0,0,0,0,.28H68.5a1.61,1.61,0,0,0-1.59,1.38h-.5a2.3,2.3,0,1,0,0,4.6h19a2.3,2.3,0,0,0,0-4.6Z"/><path class="cls-1" d="M288.92,60.2h-4.53a3.18,3.18,0,0,0,0-.48h0a3.17,3.17,0,0,0-3.17-3.17h-.72a4.45,4.45,0,0,0-4.18-2.94H273.1a4.45,4.45,0,0,0-4.45,4.45h0a4.47,4.47,0,0,0,0,.58h-3.92a2.79,2.79,0,1,0,0,5.57h24.15a2,2,0,1,0,0-4Z"/><path class="cls-3" d="M89,49.19H86.54a4.12,4.12,0,0,0-3.71-2.32H74.42s0-.06,0-.09V44.54A5.38,5.38,0,0,0,69,39.16h-8a6,6,0,0,0-5.44-3.45H48.58a6,6,0,0,0-6,5.77h-.06a5.38,5.38,0,0,0-5.38,5.38H34.56a4.49,4.49,0,0,0-4.49,4.49V53a4.49,4.49,0,0,0,4.49,4.49H46.74a4.12,4.12,0,0,0,4.12,4h32a4.12,4.12,0,0,0,4.09-3.59H89a4.34,4.34,0,0,0,4.34-4.34h0A4.34,4.34,0,0,0,89,49.19Z"/><path class="cls-4" d="M180.9,28.39a11.4,11.4,0,1,0-20.17,7.28s3.34,4,3.34,5.32v3.85h10.86V41c0-1.11,3.34-5.32,3.34-5.32h0A11.35,11.35,0,0,0,180.9,28.39Z"/><line class="cls-4" x1="167.97" y1="44.83" x2="165.42" y2="32.66"/><line class="cls-4" x1="171" y1="44.83" x2="173.59" y2="32.66"/><polyline class="cls-4" points="165.89 34.94 168.15 33.44 168.84 35.81 170.24 32.34 171 35.15 173.24 34.31"/><rect class="cls-4" x="163.86" y="46.42" width="11.27" height="1.55"/><path class="cls-4" d="M163.86,49.49h11.27a0,0,0,0,1,0,0v0a5.18,5.18,0,0,1-5.18,5.18H169a5.18,5.18,0,0,1-5.18-5.18v0A0,0,0,0,1,163.86,49.49Z"/><line class="cls-4" x1="169.52" y1="6.52" x2="169.52" y2="13.22"/><line class="cls-4" x1="185.06" y1="28.4" x2="191.37" y2="28.4"/><line class="cls-4" x1="147.64" y1="28.37" x2="154.33" y2="28.37"/><line class="cls-4" x1="158.49" y1="39.38" x2="154.03" y2="43.83"/><line class="cls-4" x1="184.97" y1="12.94" x2="180.24" y2="17.67"/><line class="cls-4" x1="180.49" y1="39.4" x2="184.95" y2="43.86"/><line class="cls-4" x1="154.05" y1="12.91" x2="158.79" y2="17.65"/><path class="cls-5" d="M140.67,94.22V93a2.15,2.15,0,0,0-4.29,0v4.65c-3.54-1.05-4.28,1.31-4.28,1.31s-.62,1.49-.18,5.41,4.79,7,4.79,7l0,4H151v-5c3.35-3.3,2.63-9.09,2.63-9.09V96a2.16,2.16,0,0,0-4.32,0V95A2.16,2.16,0,0,0,145,95v-.82a2.16,2.16,0,1,0-4.32,0v3.66"/><rect class="cls-5" x="134.85" y="115.39" width="18.13" height="18.64"/><line class="cls-5" x1="134.85" y1="121.75" x2="152.98" y2="121.75"/><path class="cls-5" d="M194.42,87.42V86.21a2.15,2.15,0,1,0-4.29,0v4.65c-3.54-1.05-4.28,1.31-4.28,1.31s-.62,1.49-.18,5.41,4.79,7,4.79,7l0,4h14.32v-5c3.35-3.3,2.63-9.09,2.63-9.09V89.17a2.16,2.16,0,1,0-4.32,0v-.93a2.16,2.16,0,0,0-4.32,0v-.82a2.16,2.16,0,1,0-4.32,0v3.66"/><rect class="cls-5" x="188.61" y="108.59" width="18.13" height="25.44"/><line class="cls-5" x1="188.61" y1="114.95" x2="206.73" y2="114.95"/><path class="cls-5" d="M167.07,68.54V67.33a2.15,2.15,0,0,0-4.29,0V72c-3.54-1.05-4.28,1.31-4.28,1.31s-.62,1.49-.18,5.41,4.79,7,4.79,7l0,4h14.32v-5c3.35-3.3,2.63-9.09,2.63-9.09V70.28a2.16,2.16,0,0,0-4.32,0v-.93a2.16,2.16,0,1,0-4.32,0v-.82a2.16,2.16,0,0,0-4.32,0V72.2"/><rect class="cls-5" x="161.25" y="89.71" width="18.13" height="44.32"/><line class="cls-5" x1="161.25" y1="96.07" x2="179.38" y2="96.07"/></svg>